<svg width="16" height="16" viewBox="0 0 16 16" fill="none" xmlns="http://www.w3.org/2000/svg">
<path fill-rule="evenodd" clip-rule="evenodd" d="M7.93577 15.3282C8.12581 15.2771 8.46071 15.1052 8.58784 14.9935L8.67672 14.9154L8.63901 14.3669C8.6183 14.0653 8.58176 13.5939 8.55787 13.3195C8.53398 13.045 8.51436 12.698 8.5143 12.5483C8.51414 12.2134 8.45823 12.3365 9.43483 10.5221C9.84663 9.75696 10.2495 9.00847 10.33 8.85877C10.5576 8.43575 10.5429 8.44536 10.6481 8.65107C10.7164 8.78459 10.7733 8.84846 10.8862 8.91826L11.0345 9.00998L12.9875 9.01908C14.3401 9.0254 14.9755 9.01799 15.0544 8.99504C15.198 8.95325 15.3652 8.80793 15.4413 8.65872C15.4984 8.5467 15.5 8.44757 15.5 4.9484V1.35317L15.4297 1.21987C15.3909 1.14656 15.3014 1.04238 15.2307 0.988305L15.1022 0.890019L13.0556 0.89017L11.0091 0.890322L10.8969 0.958244C10.6689 1.0963 10.571 1.30485 10.5707 1.65357L10.5706 1.85767L10.4269 1.75533C10.2135 1.60334 9.86783 1.43864 9.60694 1.3647C9.37837 1.29992 9.34568 1.29913 6.42128 1.29021C3.83587 1.28232 3.44124 1.28707 3.26411 1.32813C2.51617 1.5016 2.00142 2.2021 2.05129 2.97859L2.06792 3.23755L1.91148 3.33145C1.60177 3.51738 1.33673 3.84441 1.21861 4.18639C1.13581 4.42606 1.12764 4.92889 1.20279 5.15964L1.24888 5.3012L1.1082 5.41455C0.741937 5.70962 0.5 6.2015 0.5 6.65111C0.5 6.97473 0.654629 7.40126 0.870979 7.67441L0.963246 7.79093L0.853831 7.99352C0.507622 8.63447 0.60134 9.33584 1.10045 9.83967C1.34423 10.0857 1.56642 10.2161 1.87773 10.2957C2.09889 10.3523 2.21587 10.3557 3.89581 10.3557H5.67911L5.65809 10.4843C5.50183 11.4396 5.42995 12.0143 5.42971 12.31C5.42922 12.9143 5.56174 13.4644 5.83924 14.0101C6.35191 15.0183 7.17173 15.5337 7.93577 15.3282ZM7.34309 14.6952C6.84911 14.5485 6.3588 13.8734 6.15228 13.0557C6.01906 12.5282 6.02798 12.2301 6.21294 11.0308C6.29457 10.5015 6.37096 9.99054 6.38266 9.89531L6.40395 9.72221L4.21558 9.71386L2.02722 9.70554L1.85593 9.62144C1.64768 9.51916 1.46508 9.34225 1.37136 9.15197C1.31463 9.03678 1.30156 8.96144 1.30214 8.75292C1.30274 8.53373 1.31478 8.47304 1.38388 8.34094C1.46375 8.18813 1.63214 8.01844 1.88357 7.83729C1.95424 7.78636 2.0118 7.73679 2.01146 7.72712C2.0111 7.71747 1.89449 7.64214 1.75232 7.55973C1.31133 7.30409 1.15435 7.07444 1.15177 6.68135C1.14845 6.17223 1.37829 5.88702 1.9332 5.7117C2.06448 5.67021 2.18327 5.62923 2.19721 5.62061C2.21118 5.61199 2.15656 5.52051 2.07588 5.41733C1.83243 5.10602 1.78825 4.99648 1.78677 4.7005C1.78525 4.40513 1.84353 4.24249 2.02141 4.04561C2.16282 3.88905 2.35356 3.79781 2.65589 3.74205C2.79249 3.71688 2.92108 3.69136 2.94167 3.68537C2.96671 3.67808 2.93184 3.582 2.83622 3.39493C2.70095 3.13028 2.69333 3.1024 2.69318 2.87217C2.69308 2.68772 2.7086 2.59512 2.75744 2.48915C2.84562 2.29769 3.02154 2.11086 3.20475 2.01417L3.35786 1.93337H6.33669H9.31552L9.56538 2.01795C9.72446 2.07181 9.90022 2.16215 10.0493 2.26666C10.178 2.3569 10.3479 2.46853 10.4269 2.51471L10.5705 2.59869L10.5705 5.12616L10.5706 7.65366L10.3816 7.80777C10.2776 7.89251 10.1427 8.01396 10.0817 8.07765C9.92744 8.23878 7.98975 11.8484 7.92597 12.0934C7.86491 12.3279 7.86685 12.529 7.9397 13.5312C7.97296 13.9886 8.00354 14.4228 8.00765 14.4962L8.01512 14.6297L7.86391 14.684C7.67674 14.7512 7.54162 14.7541 7.34309 14.6952ZM11.2359 4.9422V1.49437L13.0428 1.50218L14.8498 1.50998L14.8575 4.95L14.8652 8.39002H13.0505H11.2359V4.9422Z" fill="black"/>
</svg>
