<svg width="16" height="16" viewBox="0 0 16 16" fill="none" xmlns="http://www.w3.org/2000/svg">
<path d="M5.53789 7.33298C5.52797 7.35141 5.51858 7.36889 5.50968 7.38547C5.48901 7.42394 5.47096 7.45756 5.45497 7.48692C5.42694 7.43792 5.39708 7.3943 5.36159 7.35447C5.31238 7.29923 5.25746 7.25701 5.19271 7.21698L5.19271 7.21697L5.04434 7.12525L5.00841 7.10304L4.96616 7.10284L3.01317 7.09374C2.33675 7.09058 1.83873 7.09084 1.49965 7.09479C1.33026 7.09676 1.1994 7.09966 1.10535 7.10358C1.05844 7.10553 1.01936 7.10779 0.988606 7.11045C0.962201 7.11274 0.929639 7.11619 0.903654 7.12375L0.903634 7.12375C0.804993 7.15246 0.708558 7.21278 0.62842 7.28245C0.547616 7.35271 0.47352 7.44102 0.425092 7.53591L0.425073 7.53595C0.400509 7.58412 0.385811 7.63015 0.376211 7.72371C0.36728 7.81073 0.361706 7.94906 0.357946 8.1867C0.350388 8.66441 0.35 9.56564 0.35 11.3144V14.9096V14.9468L0.367337 14.9796L0.43768 15.113L0.4377 15.113C0.487278 15.2069 0.591526 15.3274 0.678153 15.3937L0.678171 15.3937L0.806729 15.492L0.847067 15.5228L0.897844 15.5228L2.94441 15.5226L4.99094 15.5225L5.0328 15.5225L5.06861 15.5008L5.18081 15.4329L5.10312 15.3046L5.18081 15.4329C5.31723 15.3503 5.42046 15.2423 5.4874 15.0996C5.54327 14.9805 5.57051 14.8443 5.57744 14.6908C5.80304 14.8336 6.10996 14.9738 6.35216 15.0424L6.39306 14.8981L6.35217 15.0424C6.48448 15.0799 6.56454 15.0968 6.97145 15.1063C7.37571 15.1157 8.11714 15.1181 9.57826 15.1226C10.8705 15.1266 11.6169 15.1273 12.0622 15.122C12.5015 15.1167 12.6621 15.1058 12.7698 15.0808L12.7698 15.0808C13.5907 14.8904 14.1529 14.1229 14.0984 13.2746L14.0876 13.1068L14.1657 13.06L14.1657 13.06C14.5057 12.8559 14.7936 12.5006 14.9232 12.1254C14.9722 11.9836 14.9954 11.7796 14.9985 11.5889C15.0016 11.3988 14.9851 11.1958 14.9398 11.0567C14.9398 11.0567 14.9398 11.0567 14.9398 11.0567L14.9258 11.0135L14.9859 10.9651C15.3856 10.6431 15.65 10.1091 15.65 9.61171C15.65 9.25161 15.4822 8.79277 15.2466 8.49529C15.2466 8.49529 15.2466 8.49528 15.2466 8.49528L15.2157 8.45623L15.2781 8.34059C15.2781 8.34058 15.2782 8.34058 15.2782 8.34058C15.6546 7.6437 15.5534 6.87008 15.0061 6.31758L15.0061 6.31758C14.7448 6.0538 14.4991 5.90866 14.1594 5.82178L14.1594 5.82178C13.9146 5.75917 13.7702 5.75707 12.1042 5.75707H10.4974C10.6481 4.8314 10.72 4.25808 10.7203 3.95299C10.7208 3.32467 10.5825 2.7512 10.2945 2.1847C9.76768 1.14879 8.88999 0.557203 8.02528 0.789778C7.91555 0.819287 7.7736 0.880377 7.64611 0.945816C7.51994 1.01058 7.39102 1.08825 7.31316 1.15666C7.31315 1.15666 7.31315 1.15666 7.31315 1.15667L7.22428 1.23474L7.16854 1.28371L7.36099 1.8959L7.21134 1.90618C7.23211 2.20868 7.26872 2.68094 7.29269 2.95637C7.31646 3.22945 7.33565 3.5714 7.3357 3.71459C7.33572 3.73772 7.3359 3.75734 7.33606 3.7745C7.33655 3.8277 7.33683 3.85725 7.33107 3.89405C7.32414 3.93839 7.30692 3.99682 7.25515 4.11076C7.16104 4.31793 6.97034 4.67201 6.58092 5.39509C6.53452 5.48125 6.4853 5.57264 6.43309 5.66965L6.43309 5.66965L5.53789 7.33298ZM5.53789 7.33298L5.66998 7.40405L5.53788 7.33298L5.53789 7.33298ZM13.9377 6.70714L11.7838 6.69896L9.59548 6.69061L9.42655 6.68996L9.44717 6.5223L9.46846 6.34921L9.46846 6.34919L9.61734 6.3675C9.62904 6.27227 9.70543 5.76127 9.78706 5.23198L9.63881 5.20912C9.82356 4.01123 9.82747 3.73955 9.70229 3.24386C9.60329 2.85186 9.43671 2.49645 9.23875 2.22391C9.0387 1.94849 8.81718 1.77173 8.61421 1.71145L8.65691 1.56766L8.6142 1.71145C8.52455 1.68482 8.45722 1.67455 8.39545 1.67588C8.33401 1.67719 8.26985 1.69015 8.18682 1.71997C8.18681 1.71998 8.1868 1.71998 8.18679 1.71998L8.1409 1.73648L8.14211 1.75819C8.14211 1.7582 8.14211 1.7582 8.14211 1.7582C8.14614 1.83003 8.17658 2.26259 8.20991 2.72079L8.20991 2.72079C8.28202 3.71281 8.28795 3.94312 8.21919 4.20716L13.9377 6.70714ZM13.9377 6.70714L14.0779 6.77601C14.2594 6.86514 14.4164 7.01939 14.4941 7.17713C14.5179 7.22555 14.5297 7.25936 14.5369 7.30101C14.5449 7.34661 14.5481 7.40652 14.5479 7.50948C14.5476 7.61909 14.5441 7.676 14.5355 7.71936C14.5278 7.75834 14.5148 7.79204 14.4832 7.85235L14.4832 7.8524C14.4196 7.97399 14.2741 8.12707 14.0287 8.30383L14.0287 8.30383C13.9908 8.33119 13.9552 8.359 13.928 8.38243C13.9147 8.39382 13.9011 8.40626 13.8896 8.41834C13.8842 8.42403 13.8761 8.43292 13.8685 8.4438C13.8647 8.44917 13.8586 8.45833 13.8531 8.47034C13.8487 8.47973 13.8374 8.50578 13.8386 8.54086L13.8386 8.54135C13.8399 8.57537 13.8524 8.59979 13.8575 8.60914C13.8638 8.62061 13.8704 8.62903 13.8742 8.63371C13.882 8.64315 13.8896 8.6502 13.8937 8.65389C13.9027 8.66191 13.9124 8.66934 13.9203 8.6752C13.9371 8.68754 13.9591 8.70232 13.9835 8.71811C14.033 8.75008 14.0999 8.7908 14.1725 8.83286C14.3848 8.95595 14.5122 9.0637 14.5885 9.17539C14.6622 9.28314 14.6971 9.40743 14.6982 9.58245C14.6997 9.81369 14.6486 9.97505 14.5501 10.0973C14.4494 10.2222 14.2844 10.3251 14.0216 10.4081L14.0216 10.4081C13.955 10.4291 13.8912 10.4502 13.8419 10.4672C13.8173 10.4757 13.7956 10.4834 13.7786 10.4898C13.7702 10.493 13.762 10.4961 13.7548 10.4992L13.7544 10.4993C13.7499 10.5012 13.7367 10.5067 13.724 10.5145L13.9377 6.70714ZM13.9241 10.8455C13.9051 10.8212 13.8875 10.7975 13.872 10.7754L13.8707 10.7759C13.8673 10.7773 13.8684 10.777 13.8719 10.7753L13.7239 10.5146C13.644 10.564 13.6501 10.6491 13.6513 10.6625C13.6534 10.6869 13.6607 10.707 13.6646 10.7173C13.6736 10.7404 13.6867 10.7644 13.6992 10.7853C13.7253 10.829 13.763 10.883 13.806 10.9379L13.9241 10.8455ZM13.9241 10.8455L13.806 10.9379C13.9274 11.0932 13.9873 11.1839 14.0203 11.2658C14.0515 11.343 14.0625 11.4222 14.0632 11.5631V11.5631M13.9241 10.8455L14.0632 11.5631M14.0632 11.5631C14.0639 11.7013 14.0505 11.7966 14.022 11.8761C13.9939 11.9545 13.9475 12.0278 13.8673 12.1166L13.8673 12.1167M14.0632 11.5631L13.8673 12.1167M13.8673 12.1167C13.7561 12.2398 13.6011 12.3208 13.3169 12.3733C13.1852 12.3975 13.0464 12.4247 13.0164 12.4334L13.0164 12.4334M13.8673 12.1167L13.0164 12.4334M13.0164 12.4334C12.9568 12.4508 12.9233 12.4963 12.9097 12.536M13.0164 12.4334L12.9097 12.536M6.03686 13.8733L6.03687 13.8733C6.17518 13.9703 6.33825 14.0539 6.48272 14.1028L6.70918 14.1795H9.66331H12.605L12.7252 14.116C12.8787 14.035 13.0317 13.873 13.1063 13.7109L13.1063 13.7109C13.1423 13.6328 13.1569 13.5647 13.1568 13.3907L6.03686 13.8733ZM6.03686 13.8733C5.90681 13.7822 5.73303 13.6678 5.64883 13.6186C5.64883 13.6186 5.64882 13.6186 5.64882 13.6186L5.5795 13.5781L5.57947 11.1367L5.57944 8.68039L5.71321 8.57132M6.03686 13.8733L5.71321 8.57132M5.71321 8.57132C5.71322 8.57131 5.71323 8.57131 5.71324 8.5713M5.71321 8.57132L5.71324 8.5713M12.9097 12.536C12.8985 12.5689 12.9 12.5986 12.9015 12.6139M12.9097 12.536L12.9015 12.6139M12.9015 12.6139C12.9046 12.6464 12.915 12.6795 12.9248 12.7064M12.9015 12.6139L12.9248 12.7064M12.9248 12.7064C12.9457 12.7639 12.9819 12.8416 13.0302 12.9362M12.9248 12.7064L13.0302 12.9362M13.0302 12.9362C13.0998 13.0723 13.1274 13.1308 13.1413 13.1818M13.0302 12.9362L13.1413 13.1818M13.1413 13.1818C13.1541 13.2285 13.1567 13.2738 13.1568 13.3907L13.1413 13.1818ZM5.71324 8.5713C5.81982 8.48443 5.95984 8.35869 6.02665 8.2889L5.71324 8.5713ZM6.18166 8.05284C6.14734 8.1108 6.11755 8.15969 6.09347 8.19721L6.18166 8.05284ZM6.18166 8.05284C6.25044 7.93671 6.33971 7.78032 6.44212 7.59747M6.18166 8.05284L6.44212 7.59747M6.44212 7.59747C6.64704 7.23155 6.90616 6.75674 7.16226 6.27967M6.44212 7.59747L7.16226 6.27967M7.16226 6.27967C7.41835 5.8026 7.67181 5.32256 7.86538 4.94615M7.16226 6.27967L7.86538 4.94615M7.86538 4.94615C7.96211 4.75804 8.04425 4.59512 8.10438 4.47111M7.86538 4.94615L8.10438 4.47111M8.10438 4.47111C8.13441 4.4092 8.15939 4.35609 8.1781 4.31395M8.10438 4.47111L8.1781 4.31395M8.1781 4.31395C8.19507 4.27572 8.21161 4.23627 8.21919 4.20717L8.1781 4.31395ZM4.61411 11.3206V14.6178L2.9578 14.6106L1.29987 14.6035L1.29252 11.3125L1.28514 8.0228H2.94948H4.61411V11.3206Z" fill="#45C418" stroke="#45C418" stroke-width="0.3"/>
</svg>
