<svg width="37" height="36" viewBox="0 0 37 36" fill="none" xmlns="http://www.w3.org/2000/svg">
<rect x="0.705078" width="35.8881" height="35.8881" fill="#F79A38"/>
<path d="M24.246 20.4498C24.7168 19.979 24.784 19.3064 24.3805 18.6339C24.0442 18.0958 23.4389 17.8268 22.7664 17.9613C22.4973 18.0286 22.2283 18.1631 21.9593 18.3649C19.8744 19.7772 17.0497 19.71 14.9648 18.2976C14.8303 18.2304 14.6957 18.1631 14.5612 18.0958C13.8214 17.7596 13.0816 17.8941 12.6781 18.5666C12.2073 19.2392 12.2746 19.979 12.8799 20.5843C13.0144 20.7188 13.1489 20.7861 13.2161 20.9206L13.2834 20.9878C14.225 21.7276 15.3683 22.1984 16.8479 22.4002L15.9736 23.2745C15.2338 24.0143 14.4267 24.8214 13.6869 25.5612C13.4852 25.7629 13.2161 26.0992 13.2161 26.57C13.2161 27.1753 13.5524 27.7806 14.1577 28.0496C14.3595 28.1841 14.5612 28.1841 14.763 28.1841C15.0993 28.1841 15.5028 28.0496 15.7718 27.7133C16.7807 26.7045 17.5877 25.8974 18.3948 25.0904C18.462 25.0231 18.462 25.0231 18.462 25.0231C18.462 25.0231 18.5293 25.0231 18.5293 25.0904C19.0673 25.6957 19.6726 26.2337 20.2107 26.839C20.4797 27.108 20.7487 27.3771 21.0177 27.6461C21.354 27.9824 21.623 28.1169 22.0266 28.1169C22.6319 28.1841 23.3044 27.7806 23.5734 27.1753C23.8424 26.6372 23.7079 25.9647 23.2371 25.5612C22.5646 24.8886 21.892 24.1488 21.1522 23.4763L20.0089 22.3329C20.6142 22.2657 21.2868 22.1312 21.892 21.8621C22.9009 21.5259 23.6407 21.0551 24.246 20.4498Z" fill="white"/>
<path d="M18.462 18.5666C21.354 18.5666 23.7079 16.2799 23.7079 13.388C23.7079 11.9756 23.1699 10.6305 22.1611 9.6217C21.1522 8.61287 19.8744 8.07483 18.5293 8.07483C15.6373 8.07483 13.3506 10.4288 13.2834 13.2535C13.2834 14.6658 13.8214 15.9437 14.8303 16.9525C15.7718 18.0286 17.0497 18.5666 18.462 18.5666ZM16.9824 11.8411C17.386 11.4376 17.924 11.2358 18.462 11.2358C19.6726 11.2358 20.5469 12.1774 20.5469 13.3207C20.5469 14.5313 19.6054 15.4056 18.462 15.4056C17.2514 15.4056 16.3771 14.4641 16.3771 13.3207C16.3771 12.7827 16.5789 12.2447 16.9824 11.8411Z" fill="white"/>
<path d="M24.246 20.4498C24.7168 19.979 24.784 19.3064 24.3805 18.6339C24.0442 18.0958 23.4389 17.8268 22.7664 17.9613C22.4973 18.0286 22.2283 18.1631 21.9593 18.3649C19.8744 19.7772 17.0497 19.71 14.9648 18.2976C14.8303 18.2304 14.6957 18.1631 14.5612 18.0958C13.8214 17.7596 13.0816 17.8941 12.6781 18.5666C12.2073 19.2392 12.2746 19.979 12.8799 20.5843C13.0144 20.7188 13.1489 20.7861 13.2161 20.9206L13.2834 20.9878C14.225 21.7276 15.3683 22.1984 16.8479 22.4002L15.9736 23.2745C15.2338 24.0143 14.4267 24.8214 13.6869 25.5612C13.4852 25.7629 13.2161 26.0992 13.2161 26.57C13.2161 27.1753 13.5524 27.7806 14.1577 28.0496C14.3595 28.1841 14.5612 28.1841 14.763 28.1841C15.0993 28.1841 15.5028 28.0496 15.7718 27.7133C16.7807 26.7045 17.5877 25.8974 18.3948 25.0904C18.462 25.0231 18.462 25.0231 18.462 25.0231C18.462 25.0231 18.5293 25.0231 18.5293 25.0904C19.0673 25.6957 19.6726 26.2337 20.2107 26.839C20.4797 27.108 20.7487 27.3771 21.0177 27.6461C21.354 27.9824 21.623 28.1169 22.0266 28.1169C22.6319 28.1841 23.3044 27.7806 23.5734 27.1753C23.8424 26.6372 23.7079 25.9647 23.2371 25.5612C22.5646 24.8886 21.892 24.1488 21.1522 23.4763L20.0089 22.3329C20.6142 22.2657 21.2868 22.1312 21.892 21.8621C22.9009 21.5259 23.6407 21.0551 24.246 20.4498Z" fill="white"/>
</svg>
