<svg width="57" height="57" viewBox="0 0 57 57" fill="none" xmlns="http://www.w3.org/2000/svg">
<rect x="13" y="13" width="31.8881" height="31.8881" fill="#A6BCCA"/>
<path fill-rule="evenodd" clip-rule="evenodd" d="M20.9727 22.4911V24.01L21.3063 24.0223C22.6766 24.0727 23.8499 24.2792 25.0565 24.6824C26.5 25.1648 27.9294 25.9527 29.1048 26.9138C31.747 29.0743 33.4173 32.1311 33.7924 35.4926C33.8285 35.8163 33.8524 36.1618 33.867 36.5737L33.8792 36.9162H35.3979H36.9167L36.9166 36.6092C36.9163 35.3662 36.6875 33.8377 36.3014 32.4987C35.9056 31.1264 35.2782 29.7139 34.5387 28.5308C33.5516 26.9515 32.3636 25.6115 30.9377 24.4688C28.4938 22.5104 25.5602 21.3213 22.4668 21.0352C22.0162 20.9935 21.6168 20.9723 21.2796 20.9723L20.9727 20.9722V22.4911ZM20.9727 27.8003V29.3301L21.2707 29.3416C21.624 29.3552 21.9536 29.3908 22.3073 29.4536C24.0999 29.7718 25.7452 30.7519 26.8885 32.1828C27.912 33.4638 28.4856 34.9974 28.5474 36.6181L28.5587 36.9162H30.0886H31.6184L31.6062 36.6092C31.5591 35.4305 31.3661 34.3963 31.0023 33.3735C29.6797 29.6551 26.4005 26.956 22.5208 26.3924C22.1556 26.3393 21.7088 26.2998 21.2796 26.2827L20.9727 26.2704V27.8003ZM22.8463 32.3881C22.3856 32.4723 21.9759 32.6888 21.6383 33.0264C21.1925 33.4722 20.9728 34.0044 20.9728 34.6385C20.9728 35.2726 21.1925 35.8047 21.6383 36.2506C22.0834 36.6956 22.6174 36.9161 23.2504 36.9161C23.8834 36.9161 24.4174 36.6956 24.8624 36.2506C25.2038 35.9092 25.4197 35.4981 25.5007 35.0349C25.5362 34.8317 25.536 34.4444 25.5002 34.2381C25.3388 33.3073 24.5815 32.5501 23.6508 32.3886C23.4561 32.3549 23.0294 32.3546 22.8463 32.3881Z" fill="white"/>
</svg>
