<svg width="56" height="57" viewBox="0 0 56 57" fill="none" xmlns="http://www.w3.org/2000/svg">
<path d="M38.9266 17.6592C36.1783 14.9205 32.5139 13.3989 28.6459 13.3989C20.6046 13.3989 14.0901 19.8908 14.0901 27.9043C14.0901 30.4401 14.8026 32.976 16.0241 35.1062L13.9883 42.6124L21.7243 40.5837C23.8618 41.6995 26.203 42.3081 28.6459 42.3081C36.6873 42.3081 43.2018 35.8162 43.2018 27.8028C43.1 24.0497 41.675 20.398 38.9266 17.6592ZM35.6694 33.0775C35.364 33.889 33.939 34.7005 33.2265 34.8019C32.6157 34.9033 31.8014 34.9033 30.9871 34.7005C30.4781 34.4976 29.7656 34.2947 28.9513 33.889C25.2869 32.3674 22.9457 28.7157 22.7422 28.4114C22.5386 28.2086 21.2153 26.4841 21.2153 24.6583C21.2153 22.8325 22.1314 22.021 22.4368 21.6152C22.7422 21.2095 23.1493 21.2095 23.4547 21.2095C23.6583 21.2095 23.9636 21.2095 24.1672 21.2095C24.3708 21.2095 24.6762 21.108 24.9815 21.8181C25.2869 22.5282 25.9994 24.354 26.1012 24.4554C26.203 24.6583 26.203 24.8612 26.1012 25.064C25.9994 25.2669 25.8976 25.4698 25.694 25.6727C25.4905 25.8755 25.2869 26.1798 25.1851 26.2813C24.9815 26.4841 24.7779 26.687 24.9815 26.9913C25.1851 27.3971 25.8976 28.5129 27.0173 29.5272C28.4424 30.7445 29.562 31.1502 29.9692 31.3531C30.3764 31.5559 30.5799 31.4545 30.7835 31.2516C30.9871 31.0488 31.6996 30.2373 31.9032 29.8315C32.1068 29.4258 32.4121 29.5272 32.7175 29.6287C33.0229 29.7301 34.8551 30.643 35.1604 30.8459C35.5676 31.0488 35.7712 31.1502 35.873 31.2516C35.9748 31.5559 35.9748 32.266 35.6694 33.0775Z" fill="#A6BCCA"/>
</svg>
