<svg width="57" height="57" viewBox="0 0 57 57" fill="none" xmlns="http://www.w3.org/2000/svg">
<path d="M37.201 14.1584C31.8987 13.1458 26.3925 13.1458 21.0902 14.1584C18.745 14.6646 15.788 17.4999 15.2781 19.7275C14.3604 24.0816 14.3604 28.5369 15.2781 32.891C15.8899 35.1187 18.847 37.9539 21.0902 38.4602C21.1922 38.4602 21.2942 38.5614 21.2942 38.6627V45.0419C21.2942 45.3457 21.702 45.5482 21.906 45.2444L24.965 42.1054C24.965 42.1054 27.4122 39.574 27.82 39.169C27.82 39.169 27.922 39.0677 28.024 39.0677C31.083 39.169 34.244 38.8652 37.303 38.3589C39.6482 37.8526 42.6053 35.0174 43.1151 32.7897C44.0328 28.4357 44.0328 23.9803 43.1151 19.6263C42.5033 17.4999 39.5462 14.6646 37.201 14.1584ZM37.303 33.1948C36.7931 34.2073 36.1813 35.0174 35.1617 35.5237C34.8558 35.625 34.5499 35.7262 34.244 35.8275C33.8361 35.7262 33.5302 35.625 33.2243 35.5237C29.9614 34.2073 26.9024 32.3847 24.4551 29.752C23.1296 28.2332 22.0079 26.5118 21.0902 24.6891C20.6824 23.7778 20.2745 22.9678 19.9686 22.0564C19.6627 21.2464 20.1725 20.4363 20.6824 19.8288C21.1922 19.2212 21.804 18.8162 22.5178 18.5124C23.0276 18.2087 23.5374 18.4112 23.9453 18.8162C24.761 19.8288 25.5768 20.8414 26.1886 21.9552C26.5964 22.664 26.4945 23.474 25.7807 23.9803C25.5768 24.0816 25.4748 24.1829 25.2709 24.3854C25.1689 24.4866 24.965 24.5879 24.863 24.7904C24.6591 25.0942 24.6591 25.3979 24.761 25.7017C25.5768 28.0306 27.1063 29.8533 29.4515 30.8658C29.8594 31.0684 30.1653 31.1696 30.6751 31.1696C31.3889 31.0684 31.6948 30.2583 32.2046 29.8533C32.7145 29.4482 33.3263 29.4482 33.9381 29.752C34.4479 30.0558 34.9577 30.4608 35.5695 30.8658C36.0794 31.2709 36.5892 31.5746 37.099 31.9797C37.4049 32.1822 37.5069 32.6885 37.303 33.1948ZM33.0204 25.6005C32.8164 25.6005 32.9184 25.6005 33.0204 25.6005C32.6125 25.6005 32.5105 25.3979 32.4086 25.0942C32.4086 24.8917 32.4086 24.5879 32.3066 24.3854C32.2046 23.9803 32.0007 23.5753 31.5928 23.2715C31.3889 23.1703 31.185 23.069 30.981 22.9678C30.6751 22.8665 30.4712 22.8665 30.1653 22.8665C29.8594 22.7652 29.7574 22.5627 29.7574 22.259C29.7574 22.0564 30.0633 21.8539 30.2673 21.8539C31.8987 21.9552 33.1223 22.8665 33.3263 24.7904C33.3263 24.8917 33.3263 25.0942 33.3263 25.1954C33.3263 25.3979 33.2243 25.6005 33.0204 25.6005ZM32.0007 21.1451C31.4909 20.9426 30.981 20.7401 30.3692 20.6388C30.1653 20.6388 29.8594 20.5376 29.6555 20.5376C29.3496 20.5376 29.1456 20.3351 29.2476 20.0313C29.2476 19.7275 29.4515 19.525 29.7574 19.6263C30.7771 19.7275 31.6948 19.93 32.6125 20.3351C34.4479 21.2464 35.4676 22.7652 35.7735 24.7904C35.7735 24.8917 35.7735 24.9929 35.7735 25.0942C35.7735 25.2967 35.7735 25.4992 35.7735 25.803C35.7735 25.9042 35.7735 26.0055 35.7735 26.1067C35.6715 26.5118 34.9577 26.613 34.8558 26.1067C34.8558 26.0055 34.7538 25.803 34.7538 25.7017C34.7538 24.7904 34.5499 23.8791 34.142 23.069C33.5302 22.1577 32.8164 21.5502 32.0007 21.1451ZM37.5069 27.2206C37.201 27.2206 36.9971 26.9168 36.9971 26.613C36.9971 26.0055 36.8951 25.3979 36.7931 24.7904C36.3853 21.5502 33.7341 18.9175 30.5732 18.4112C30.0633 18.3099 29.5535 18.3099 29.1456 18.2087C28.8397 18.2087 28.4318 18.2087 28.3299 17.8036C28.2279 17.4999 28.5338 17.1961 28.8397 17.1961C28.9417 17.1961 29.0437 17.1961 29.0437 17.1961C33.2243 17.2973 29.2476 17.1961 29.0437 17.1961C33.3263 17.2973 36.8951 20.1326 37.6089 24.3854C37.7108 25.0942 37.8128 25.803 37.8128 26.613C38.0167 26.9168 37.8128 27.2206 37.5069 27.2206Z" fill="#A6BCCA"/>
</svg>
