<svg width="94" height="59" viewBox="0 0 94 59" fill="none" xmlns="http://www.w3.org/2000/svg">
<rect x="0.542969" y="0.327881" width="93.2151" height="52" rx="3.82486" fill="#05598F"/>
<path d="M21.6473 41.3279V12.8354H33.1414C35.1111 12.8354 36.7705 13.1726 38.1195 13.8472C39.4686 14.4947 40.4804 15.3851 41.155 16.5183C41.8295 17.6246 42.1668 18.8792 42.1668 20.2823C42.1668 21.8202 41.8025 23.1153 41.074 24.1676C40.3725 25.1929 39.4956 25.9349 38.4433 26.3936C39.2528 26.6364 40.0217 27.0412 40.7502 27.6078C41.4787 28.1744 42.0723 28.9299 42.531 29.8742C43.0167 30.7916 43.2595 31.8843 43.2595 33.1525C43.2595 34.7444 42.8683 36.1609 42.0858 37.4021C41.3034 38.6432 40.1836 39.6146 38.7266 40.3161C37.2696 40.9906 35.5698 41.3279 33.6271 41.3279H21.6473ZM27.7991 37.8068L26.2207 36.1879H32.8177C34.0858 36.1879 35.0976 35.8911 35.8531 35.2975C36.6086 34.6769 36.9863 33.8135 36.9863 32.7073C36.9863 31.628 36.6086 30.7781 35.8531 30.1575C35.1246 29.51 34.1263 29.1862 32.8581 29.1862H26.4635V24.37H32.332C33.5192 24.37 34.4096 24.0732 35.0032 23.4796C35.6237 22.886 35.934 22.117 35.934 21.1727C35.934 20.1474 35.6102 19.3649 34.9627 18.8253C34.3151 18.2587 33.3843 17.9754 32.1701 17.9754H26.2207L27.7991 16.3969V37.8068ZM54.0043 41.3279H47.812V12.8354H54.0043V41.3279ZM65.5389 12.8354H71.7312V41.3279H65.5389V12.8354ZM67.1173 29.51H52.4259V23.9653H67.1173V29.51Z" fill="white"/>
<path d="M27.9468 48.8889H15.5901C14.9082 48.8889 14.3555 49.4417 14.3555 50.1235V57.4252C14.3555 58.3812 15.3951 58.9745 16.2182 58.4882L28.5749 51.1864C29.6567 50.5472 29.2034 48.8889 27.9468 48.8889Z" fill="#05598F"/>
</svg>
