<svg width="19" height="19" viewBox="0 0 19 19" fill="none" xmlns="http://www.w3.org/2000/svg">
<path d="M16.1113 2.82251C14.3388 1.05614 11.9754 0.0748291 9.48078 0.0748291C4.29452 0.0748291 0.0929916 4.26177 0.0929916 9.43002C0.0929916 11.0655 0.552535 12.7011 1.34032 14.0749L0.0273438 18.9161L5.01666 17.6076C6.39529 18.3273 7.90521 18.7198 9.48078 18.7198C14.667 18.7198 18.8686 14.5329 18.8686 9.3646C18.8029 6.94403 17.8838 4.58887 16.1113 2.82251ZM14.0106 12.7665C13.8136 13.2899 12.8945 13.8132 12.435 13.8786C12.0411 13.9441 11.5159 13.9441 10.9907 13.8132C10.6625 13.6824 10.2029 13.5515 9.67773 13.2899C7.31437 12.3085 5.80445 9.95339 5.67315 9.75713C5.54185 9.62629 4.68842 8.51413 4.68842 7.33655C4.68842 6.15898 5.27925 5.63561 5.4762 5.37392C5.67315 5.11224 5.93574 5.11224 6.13269 5.11224C6.26399 5.11224 6.46093 5.11224 6.59223 5.11224C6.72353 5.11224 6.92048 5.04682 7.11742 5.50477C7.31437 5.96271 7.77391 7.14029 7.83956 7.20571C7.90521 7.33655 7.90521 7.4674 7.83956 7.59824C7.77391 7.72908 7.70826 7.85992 7.57696 7.99076C7.44567 8.1216 7.31437 8.31787 7.24872 8.38329C7.11742 8.51413 6.98613 8.64497 7.11742 8.84123C7.24872 9.10292 7.70826 9.82255 8.4304 10.4768C9.34949 11.2618 10.0716 11.5235 10.3342 11.6543C10.5968 11.7852 10.7281 11.7198 10.8594 11.5889C10.9907 11.4581 11.4503 10.9347 11.5815 10.673C11.7128 10.4113 11.9098 10.4768 12.1067 10.5422C12.3037 10.6076 13.4854 11.1964 13.6823 11.3272C13.9449 11.4581 14.0762 11.5235 14.1419 11.5889C14.2075 11.7852 14.2075 12.2431 14.0106 12.7665Z" fill="#48C95F"/>
</svg>
