<svg width="93" height="59" viewBox="0 0 93 59" fill="none" xmlns="http://www.w3.org/2000/svg">
<rect x="0.761719" y="0.327881" width="92.2151" height="52" rx="3.82486" fill="#05598F"/>
<path d="M28.0583 41.3279H21.866V12.8354H28.0583V41.3279ZM39.5929 12.8354H45.7852V41.3279H39.5929V12.8354ZM41.1713 29.51H26.4799V23.9653H41.1713V29.51ZM63.1987 23.5605C65.1414 23.5605 66.8277 23.9248 68.2578 24.6533C69.6878 25.3548 70.7805 26.3801 71.536 27.7292C72.2915 29.0513 72.6692 30.6162 72.6692 32.424C72.6692 34.0968 72.278 35.6213 71.4955 36.9973C70.7401 38.3464 69.6338 39.4122 68.1768 40.1947C66.7468 40.9501 65.0874 41.3279 63.1987 41.3279H51.7855V12.8354H70.4837V18.2991H56.5208L57.9778 16.8826V37.5235L56.3994 36.107H62.3083C63.6034 36.107 64.6153 35.7562 65.3438 35.0547C66.0723 34.3532 66.4365 33.4358 66.4365 32.3026C66.4365 31.1693 66.0723 30.2654 65.3438 29.5909C64.6153 28.9164 63.6034 28.5791 62.3083 28.5791H57.0065V23.5605H63.1987Z" fill="white"/>
<path d="M28.1656 48.8889H15.8088C15.127 48.8889 14.5742 49.4417 14.5742 50.1235V57.4252C14.5742 58.3812 15.6139 58.9745 16.4369 58.4882L28.7937 51.1864C29.8755 50.5472 29.4221 48.8889 28.1656 48.8889Z" fill="#05598F"/>
</svg>
