<svg width="17" height="17" viewBox="0 0 17 17" fill="none" xmlns="http://www.w3.org/2000/svg">
<path d="M0.725737 0.555815C1.13349 0.148062 1.79459 0.148062 2.20234 0.555815L7.88877 6.24224L6.41216 7.71884L0.725737 2.03242C0.317984 1.62467 0.317984 0.963568 0.725737 0.555815ZM6.76571 8.0724L8.24232 6.59579L9.71892 8.0724L8.24232 9.549L6.76571 8.0724ZM10.0725 7.71884L8.59587 6.24224L14.282 0.556107C14.6898 0.148353 15.3509 0.148354 15.7586 0.556107C16.1664 0.96386 16.1664 1.62496 15.7586 2.03271L10.0725 7.71884ZM8.59587 9.90256L10.0725 8.42595L15.9285 14.282C16.3363 14.6898 16.3363 15.3509 15.9285 15.7586C15.5208 16.1664 14.8597 16.1664 14.4519 15.7586L8.59587 9.90256ZM6.41216 8.42595L7.88877 9.90256L2.03242 15.7589C1.62467 16.1667 0.963568 16.1667 0.555815 15.7589C0.148062 15.3511 0.148062 14.6901 0.555815 14.2823L6.41216 8.42595Z" fill="white" stroke="#05598F" stroke-width="0.5"/>
</svg>
