<svg width="19" height="16" viewBox="0 0 19 16" fill="none" xmlns="http://www.w3.org/2000/svg">
<path d="M3.48138 5.14163H14.9147M3.48138 7.99996H14.9147M1.56217 0.854126H16.8339C17.3526 0.854126 17.773 1.27302 17.773 1.78975V12.4865C17.773 13.0033 17.3526 13.4222 16.8339 13.4222H7.78171C7.56836 13.4222 7.35863 13.4773 7.17285 13.5822L4.47923 15.1033C4.27684 15.2224 4.02117 15.0771 4.02117 14.8429V14.6604C4.02117 13.9765 3.46679 13.4222 2.78292 13.4222H1.56217C1.04351 13.4222 0.623047 13.0033 0.623047 12.4865V1.78975C0.623047 1.27302 1.04351 0.854126 1.56217 0.854126Z" stroke="#05598F" stroke-width="1.00042"/>
</svg>
