<svg width="18" height="21" viewBox="0 0 18 21" fill="none" xmlns="http://www.w3.org/2000/svg">
<path fill-rule="evenodd" clip-rule="evenodd" d="M8.75969 0.0302991C8.36161 0.128856 8.07122 0.460627 8.00945 0.887378C7.99617 0.979111 7.98609 3.07598 7.98578 5.80311L7.98527 10.5589L6.79821 9.37534C5.69386 8.27432 5.59877 8.18598 5.43346 8.1078C5.2674 8.02923 5.23833 8.02373 4.98917 8.02373C4.75286 8.02373 4.70601 8.03146 4.57693 8.09192C4.3816 8.18337 4.19309 8.37668 4.0927 8.58841C4.01922 8.74338 4.01163 8.78202 4.01163 9.00042C4.01163 9.22021 4.01899 9.25705 4.09534 9.419C4.17497 9.58788 4.28267 9.70011 6.29164 11.7074C8.15686 13.5711 8.42118 13.8259 8.54905 13.8841C8.76279 13.9813 8.96749 14.0132 9.15441 13.9785C9.51669 13.9112 9.4073 14.0083 11.7102 11.7074C13.7191 9.70011 13.8268 9.58788 13.9065 9.419C13.9828 9.25705 13.9902 9.22021 13.9902 9.00042C13.9902 8.78202 13.9826 8.74338 13.9091 8.58841C13.8087 8.37668 13.6202 8.18337 13.4249 8.09192C13.2958 8.03146 13.2489 8.02373 13.0126 8.02373C12.7635 8.02373 12.7344 8.02923 12.5683 8.1078C12.403 8.18598 12.3079 8.27432 11.2036 9.37534L10.0165 10.5589L10.016 5.80311C10.0157 3.07598 10.0056 0.979111 9.99236 0.887378C9.90362 0.274193 9.34456 -0.114505 8.75969 0.0302991ZM0.819508 19.0218C0.300293 19.1092 -0.0724172 19.628 0.0119307 20.1459C0.0602493 20.4425 0.215412 20.6815 0.462057 20.8392C0.733458 21.0128 0.0421711 20.9998 9.0009 20.9998C17.9596 20.9998 17.2683 21.0128 17.5397 20.8392C17.7061 20.7329 17.8273 20.5956 17.9053 20.4253C18.1846 19.8158 17.8196 19.1282 17.1595 19.0201C16.9787 18.9906 0.995414 18.9922 0.819508 19.0218Z" fill="white"/>
</svg>
