<svg width="94" height="59" viewBox="0 0 94 59" fill="none" xmlns="http://www.w3.org/2000/svg">
<rect x="0.214844" y="0.0217285" width="93.1225" height="52" rx="3.81508" fill="#05598F"/>
<path d="M27.4411 41.0217H21.2646V12.602H27.4411V41.0217ZM25.6648 26.3678L37.3718 12.602H44.5978L31.5991 28.1844V24.1475L44.8401 41.0217H37.3314L25.6648 26.3678ZM54.2879 41.0217H48.1115V12.602H54.2879V41.0217ZM65.7931 12.602H71.9695V41.0217H65.7931V12.602ZM67.3675 29.234H52.7136V23.7035H67.3675V29.234Z" fill="white"/>
<path d="M27.5488 48.4587H15.2236C14.5435 48.4587 13.9922 49.0101 13.9922 49.6902V56.9733C13.9922 57.9268 15.0292 58.5185 15.8501 58.0334L28.1753 50.7504C29.2543 50.1128 28.8021 48.4587 27.5488 48.4587Z" fill="#05598F"/>
</svg>
