<svg width="41" height="26" viewBox="0 0 41 26" fill="none" xmlns="http://www.w3.org/2000/svg">
<path fill-rule="evenodd" clip-rule="evenodd" d="M1.70066 0H39.1117C40.0509 0 40.8124 0.761412 40.8124 1.70066V21.1085C40.8124 22.0477 40.0509 22.8091 39.1117 22.8091H1.70066C0.761412 22.8091 0 22.0477 0 21.1085V1.70066C0 0.761412 0.761412 0 1.70066 0ZM12.574 7.77862H8.79495V5.33125H19.0883V7.77862H15.3273V18H12.574V7.77862ZM20.974 18H23.7273V12.7453H28.856V18H31.6093V5.33125H28.856V10.28H23.7273V5.33125H20.974V18Z" fill="white"/>
<path d="M6.33594 22.8091V25.3875C6.33594 25.8126 6.79822 26.0764 7.16412 25.8602L12.3275 22.8091H6.33594Z" fill="white"/>
</svg>
