<svg width="14" height="21" viewBox="0 0 14 21" fill="none" xmlns="http://www.w3.org/2000/svg">
<path d="M12.8182 12.4498C13.289 11.979 13.3563 11.3064 12.9528 10.6339C12.6165 10.0958 12.0112 9.82683 11.3386 9.96134C11.0696 10.0286 10.8006 10.1631 10.5316 10.3649C8.44665 11.7772 5.62194 11.71 3.53703 10.2976C3.40252 10.2304 3.26801 10.1631 3.1335 10.0958C2.39369 9.75957 1.65389 9.89409 1.25036 10.5666C0.779577 11.2392 0.846824 11.979 1.45212 12.5843C1.58663 12.7188 1.72114 12.7861 1.7884 12.9206L1.85565 12.9878C2.79723 13.7276 3.94057 14.1984 5.42018 14.4002L4.54586 15.2745C3.80605 16.0143 2.999 16.8214 2.25919 17.5612C2.05742 17.7629 1.7884 18.0992 1.7884 18.57C1.7884 19.1753 2.12468 19.7806 2.72997 20.0496C2.93174 20.1841 3.1335 20.1841 3.33527 20.1841C3.67154 20.1841 4.07507 20.0496 4.34409 19.7133C5.35292 18.7045 6.15999 17.8974 6.96705 17.0904C7.0343 17.0231 7.0343 17.0231 7.0343 17.0231C7.0343 17.0231 7.10156 17.0231 7.10156 17.0904C7.6396 17.6957 8.24489 18.2337 8.78294 18.839C9.05196 19.108 9.32097 19.3771 9.58999 19.6461C9.92627 19.9824 10.1953 20.1169 10.5988 20.1169C11.2041 20.1841 11.8767 19.7806 12.1457 19.1753C12.4147 18.6372 12.2802 17.9647 11.8094 17.5612C11.1369 16.8886 10.4643 16.1488 9.7245 15.4763L8.58117 14.3329C9.18646 14.2657 9.85902 14.1312 10.4643 13.8621C11.4731 13.5259 12.2129 13.0551 12.8182 12.4498Z" fill="#F79A38"/>
<path d="M7.0343 10.5666C9.92627 10.5666 12.2802 8.27995 12.2802 5.38798C12.2802 3.97562 11.7422 2.63053 10.7333 1.6217C9.7245 0.612872 8.44666 0.0748291 7.10156 0.0748291C4.20959 0.0748291 1.92291 2.42876 1.85565 5.25347C1.85565 6.66583 2.3937 7.94368 3.40252 8.9525C4.3441 10.0286 5.62194 10.5666 7.0343 10.5666ZM5.55469 3.84112C5.95822 3.43759 6.49626 3.23582 7.0343 3.23582C8.24489 3.23582 9.11921 4.17739 9.11921 5.32073C9.11921 6.53132 8.17763 7.40563 7.0343 7.40563C5.8237 7.40563 4.94939 6.46407 4.94939 5.32073C4.94939 4.78269 5.15115 4.24465 5.55469 3.84112Z" fill="#F79A38"/>
<path d="M12.8182 12.4498C13.289 11.979 13.3563 11.3064 12.9528 10.6339C12.6165 10.0958 12.0112 9.82683 11.3386 9.96134C11.0696 10.0286 10.8006 10.1631 10.5316 10.3649C8.44665 11.7772 5.62194 11.71 3.53703 10.2976C3.40252 10.2304 3.26801 10.1631 3.1335 10.0958C2.39369 9.75957 1.65389 9.89409 1.25036 10.5666C0.779577 11.2392 0.846824 11.979 1.45212 12.5843C1.58663 12.7188 1.72114 12.7861 1.7884 12.9206L1.85565 12.9878C2.79723 13.7276 3.94057 14.1984 5.42018 14.4002L4.54586 15.2745C3.80605 16.0143 2.999 16.8214 2.25919 17.5612C2.05742 17.7629 1.7884 18.0992 1.7884 18.57C1.7884 19.1753 2.12468 19.7806 2.72997 20.0496C2.93174 20.1841 3.1335 20.1841 3.33527 20.1841C3.67154 20.1841 4.07507 20.0496 4.34409 19.7133C5.35292 18.7045 6.15999 17.8974 6.96705 17.0904C7.0343 17.0231 7.0343 17.0231 7.0343 17.0231C7.0343 17.0231 7.10156 17.0231 7.10156 17.0904C7.6396 17.6957 8.24489 18.2337 8.78294 18.839C9.05196 19.108 9.32097 19.3771 9.58999 19.6461C9.92627 19.9824 10.1953 20.1169 10.5988 20.1169C11.2041 20.1841 11.8767 19.7806 12.1457 19.1753C12.4147 18.6372 12.2802 17.9647 11.8094 17.5612C11.1369 16.8886 10.4643 16.1488 9.7245 15.4763L8.58117 14.3329C9.18646 14.2657 9.85902 14.1312 10.4643 13.8621C11.4731 13.5259 12.2129 13.0551 12.8182 12.4498Z" fill="#F79A38"/>
</svg>
