<svg width="57" height="57" viewBox="0 0 57 57" fill="none" xmlns="http://www.w3.org/2000/svg">
<path d="M30.9769 31.3841C28.7908 33.6397 28.6319 36.4518 28.4431 42.6124C34.1864 42.6124 38.1511 42.5926 40.198 40.6053C42.1853 38.5583 42.2052 34.4048 42.2052 28.8503C36.0445 29.049 33.2325 29.1981 30.9769 31.3841ZM14.3828 28.8503C14.3828 34.4048 14.4027 38.5583 16.39 40.6053C18.4369 42.5926 22.4016 42.6124 28.145 42.6124C27.9462 36.4518 27.7972 33.6397 25.6111 31.3841C23.3555 29.1981 20.5435 29.0391 14.3828 28.8503ZM28.145 14.79C22.4116 14.79 18.4369 14.8099 16.39 16.7972C14.4027 18.8442 14.3828 22.9976 14.3828 28.5522C20.5435 28.3535 23.3555 28.2044 25.6111 26.0184C27.7972 23.7628 27.9562 20.9507 28.145 14.79ZM30.9769 26.0184C28.7908 23.7628 28.6319 20.9507 28.4431 14.79C34.1864 14.79 38.1511 14.8099 40.198 16.7972C42.1853 18.8442 42.2052 22.9976 42.2052 28.5522C36.0445 28.3535 33.2325 28.2044 30.9769 26.0184Z" fill="#A6BCCA"/>
<path d="M42.2052 28.8503V28.5522C36.0445 28.3535 33.2325 28.2044 30.9769 26.0184C28.7908 23.7628 28.6319 20.9507 28.4431 14.79H28.145C27.9462 20.9507 27.7972 23.7628 25.6111 26.0184C23.3555 28.2044 20.5435 28.3634 14.3828 28.5522V28.8503C20.5435 29.049 23.3555 29.1981 25.6111 31.3841C27.7972 33.6397 27.9562 36.4518 28.145 42.6124H28.4431C28.6418 36.4518 28.7908 33.6397 30.9769 31.3841C33.2325 29.1981 36.0445 29.0391 42.2052 28.8503Z" fill="white"/>
</svg>
