<svg width="56" height="57" viewBox="0 0 56 57" fill="none" xmlns="http://www.w3.org/2000/svg">
<path d="M36.7862 32.5864C37.5162 31.8564 37.6205 30.8137 36.9948 29.7709C36.4734 28.9366 35.5349 28.5195 34.4921 28.7281C34.075 28.8323 33.6578 29.0409 33.2407 29.3537C30.0081 31.5436 25.6283 31.4393 22.3956 29.2495C22.1871 29.1452 21.9785 29.0409 21.77 28.9366C20.6229 28.4152 19.4758 28.6238 18.8501 29.6666C18.1202 30.7094 18.2244 31.8565 19.163 32.795C19.3715 33.0035 19.5801 33.1078 19.6844 33.3164L19.7886 33.4206C21.2486 34.5677 23.0213 35.2977 25.3155 35.6105L23.9598 36.9662C22.8128 38.1132 21.5614 39.3646 20.4143 40.5117C20.1015 40.8245 19.6844 41.3459 19.6844 42.0759C19.6844 43.0144 20.2058 43.9529 21.1443 44.37C21.4571 44.5786 21.77 44.5786 22.0828 44.5786C22.6042 44.5786 23.2299 44.37 23.647 43.8486C25.2112 42.2844 26.4626 41.0331 27.7139 39.7817C27.8182 39.6774 27.8182 39.6774 27.8182 39.6774C27.8182 39.6774 27.9225 39.6774 27.9225 39.7817C28.7567 40.7202 29.6952 41.5545 30.5295 42.493C30.9466 42.9101 31.3637 43.3272 31.7808 43.7444C32.3022 44.2657 32.7193 44.4743 33.345 44.4743C34.2835 44.5786 35.3263 43.9529 35.7435 43.0144C36.1606 42.1801 35.952 41.1374 35.2221 40.5117C34.1793 39.4689 33.1365 38.3218 31.9894 37.279L30.2166 35.5062C31.1551 35.402 32.1979 35.1934 33.1365 34.7763C34.7007 34.2549 35.8477 33.5249 36.7862 32.5864Z" fill="#A6BCCA"/>
<path d="M27.8182 29.6666C32.3022 29.6666 35.952 26.121 35.952 21.637C35.952 19.4471 35.1178 17.3616 33.5536 15.7974C31.9894 14.2332 30.0081 13.3989 27.9225 13.3989C23.4384 13.3989 19.8929 17.0487 19.7886 21.4285C19.7886 23.6183 20.6229 25.5997 22.1871 27.1638C23.647 28.8323 25.6283 29.6666 27.8182 29.6666ZM25.524 19.2386C26.1497 18.6129 26.9839 18.3001 27.8182 18.3001C29.6952 18.3001 31.0509 19.76 31.0509 21.5327C31.0509 23.4098 29.5909 24.7654 27.8182 24.7654C25.9411 24.7654 24.5855 23.3055 24.5855 21.5327C24.5855 20.6985 24.8984 19.8643 25.524 19.2386Z" fill="#A6BCCA"/>
<path d="M36.7862 32.5864C37.5162 31.8564 37.6205 30.8137 36.9948 29.7709C36.4734 28.9366 35.5349 28.5195 34.4921 28.7281C34.075 28.8323 33.6578 29.0409 33.2407 29.3537C30.0081 31.5436 25.6283 31.4393 22.3956 29.2495C22.1871 29.1452 21.9785 29.0409 21.77 28.9366C20.6229 28.4152 19.4758 28.6238 18.8501 29.6666C18.1202 30.7094 18.2244 31.8565 19.163 32.795C19.3715 33.0035 19.5801 33.1078 19.6844 33.3164L19.7886 33.4206C21.2486 34.5677 23.0213 35.2977 25.3155 35.6105L23.9598 36.9662C22.8128 38.1132 21.5614 39.3646 20.4143 40.5117C20.1015 40.8245 19.6844 41.3459 19.6844 42.0759C19.6844 43.0144 20.2058 43.9529 21.1443 44.37C21.4571 44.5786 21.77 44.5786 22.0828 44.5786C22.6042 44.5786 23.2299 44.37 23.647 43.8486C25.2112 42.2844 26.4626 41.0331 27.7139 39.7817C27.8182 39.6774 27.8182 39.6774 27.8182 39.6774C27.8182 39.6774 27.9225 39.6774 27.9225 39.7817C28.7567 40.7202 29.6952 41.5545 30.5295 42.493C30.9466 42.9101 31.3637 43.3272 31.7808 43.7444C32.3022 44.2657 32.7193 44.4743 33.345 44.4743C34.2835 44.5786 35.3263 43.9529 35.7435 43.0144C36.1606 42.1801 35.952 41.1374 35.2221 40.5117C34.1793 39.4689 33.1365 38.3218 31.9894 37.279L30.2166 35.5062C31.1551 35.402 32.1979 35.1934 33.1365 34.7763C34.7007 34.2549 35.8477 33.5249 36.7862 32.5864Z" fill="#A6BCCA"/>
</svg>
