<svg width="57" height="57" viewBox="0 0 57 57" fill="none" xmlns="http://www.w3.org/2000/svg">
<path d="M30.0724 38.4413C19.6154 38.4413 13.6509 31.1302 13.4023 18.9646H18.6404C18.8125 27.8939 22.6741 31.6761 25.7328 32.456V18.9646H30.665V26.6656C33.6855 26.3342 36.8589 22.8249 37.9294 18.9646H42.8616C42.4582 20.9666 41.6541 22.8622 40.4995 24.5329C39.3449 26.2035 37.8647 27.6132 36.1516 28.6737C38.0639 29.6428 39.753 31.0144 41.1073 32.6981C42.4617 34.3818 43.4505 36.3393 44.0086 38.4413H38.5794C38.0784 36.6155 37.0602 34.9812 35.6523 33.743C34.2444 32.5049 32.5095 31.7181 30.665 31.4812V38.4413H30.0724Z" fill="#A6BCCA"/>
</svg>
