<svg xmlns="http://www.w3.org/2000/svg" width="995" height="105" viewBox="0 0 995 105" fill="none">
<mask id="mask0_2050_5737" style="mask-type:alpha" maskUnits="userSpaceOnUse" x="0" y="3" width="95" height="101">
<rect y="3" width="94.4839" height="101" fill="url(#paint0_linear_2050_5737)"/>
</mask>
<g mask="url(#mask0_2050_5737)">
<path fill-rule="evenodd" clip-rule="evenodd" d="M45.6425 -75.6606C45.4984 -75.205 44.9146 -71.8504 44.3445 -68.2061C43.7744 -64.5618 42.9206 -59.4503 42.447 -56.8472C41.974 -54.2441 41.4196 -51.0491 41.2154 -49.7479C40.9836 -48.2687 40.5031 -47.3815 39.9336 -47.3815C39.4324 -47.3815 38.4107 -46.7656 37.6633 -46.0128C36.916 -45.2599 35.0128 -43.9745 33.4347 -43.1566C28.8923 -40.8028 24.8059 -35.8933 23.9558 -31.7681C23.5655 -29.8756 23.382 -27.8051 23.5474 -27.1672C23.7146 -26.5235 23.4616 -25.8577 22.9779 -25.6709C21.8384 -25.2305 21.8672 -23.7576 23.0343 -22.7814C24.727 -21.3666 25.8665 -18.1993 25.8665 -14.9116C25.8665 -13.1257 26.1409 -11.3878 26.4761 -11.0502C26.8118 -10.712 27.1639 -5.89897 27.2591 -0.353958L27.2618 -0.201874L27.4327 9.72828L65.1473 10.0432L67.3405 10.0615L67.3402 10.0432L67.2052 -0.201874C67.0266 -13.6444 67.7934 -20.391 69.7342 -22.4722C70.9464 -23.7715 71.0717 -24.2624 70.4947 -25.4501C70.1151 -26.2326 69.6177 -28.2835 69.389 -30.0081C68.7024 -35.1979 66.528 -38.6913 62.1534 -41.6339C60.0335 -43.0595 57.9186 -44.2263 57.4531 -44.2263C56.9877 -44.2263 56.3073 -44.791 55.9402 -45.4808C55.5737 -46.1712 54.5915 -46.9082 53.757 -47.119C52.5223 -47.4314 52.1195 -48.1066 51.5895 -50.7551C50.631 -55.5409 47.9723 -69.9982 47.4818 -73.0935C47.047 -75.8354 46.1105 -77.1423 45.6425 -75.6606ZM38.7089 -14.0016L54.3703 -13.9568V-24.0327H38.7089V-14.0016ZM44.8244 -9.56031C43.5257 -7.26898 43.1643 -7.05442 39.901 -6.64424L36.3797 -6.20061L38.9513 -3.9156C41.4052 -1.73533 41.4972 -1.52266 40.9648 0.735855C40.3258 3.44684 40.3151 3.4418 44.248 2.09198C46.9462 1.16624 47.3991 1.16624 49.6969 2.09198C51.0751 2.64793 52.37 3.10229 52.5749 3.10229C52.7791 3.10229 52.7835 1.89572 52.5843 0.420334C52.2416 -2.11963 52.3531 -2.36637 54.6892 -4.24184L57.1555 -6.22207L53.7038 -6.65686C50.5777 -7.05 50.0991 -7.32452 48.6263 -9.56725C47.7318 -10.9284 46.8259 -12.041 46.6129 -12.0378C46.4005 -12.0353 45.5955 -10.9202 44.8244 -9.56031ZM-3.03069 -10.3075C-3.49051 -7.58261 -3.30195 -6.85817 -2.0033 -6.36028C-1.02492 -5.98592 -0.517576 -5.19145 -0.24175 -0.201874C0.0115526 4.38026 0.0695982 12.5004 0.117882 27.0821C0.225006 59.3942 0.704243 77.8454 1.53242 81.5648C2.37876 85.3656 5.20095 88.3568 9.36438 89.8662C11.349 90.5863 15.5375 91.1372 21.4813 91.4615C26.6678 91.7442 31.9507 92.3917 33.795 92.9716C37.04 93.9914 38.0142 94.7657 43.6429 100.797C47.9379 105.399 48.8976 105.239 54.1886 99.0366C59.3626 92.9716 61.1242 92.2485 72.6673 91.4521C85.3123 90.58 90.0733 88.8029 92.7834 83.9458C94.2167 81.3761 94.2217 81.2859 94.1673 57.2222C94.1372 43.9424 93.9875 24.3351 93.834 13.6509L93.6352 -0.201874L93.5552 -5.77528L95.1057 -6.3691C96.2834 -6.8203 96.6562 -7.42169 96.6562 -8.87183C96.6562 -10.5346 96.4338 -10.7801 94.9334 -10.777C90.5357 -10.7681 87.3288 -8.96902 84.3839 -4.859L83.0802 -3.03907L81.6926 -5.30011C79.9366 -8.16191 76.9353 -10.0424 73.3275 -10.5403C70.5348 -10.9259 70.506 -10.9108 70.214 -8.90781C69.9697 -7.22796 70.1677 -6.79128 71.3855 -6.32494C72.652 -5.83981 72.8246 -5.61763 72.8474 -0.201874C72.8503 0.490135 72.8508 1.26695 72.8508 2.13994V10.0438H86.0064L86.0177 16.8276C86.0233 20.5583 86.0941 36.0114 86.1743 51.1666C86.3165 78.13 86.2921 78.7605 85.026 80.5103C82.7538 83.6523 79.9786 84.5516 71.4688 84.9012C67.2327 85.076 62.3226 85.4969 60.5566 85.8376C56.5109 86.6182 52.1351 89.386 49.7897 92.6479L47.9761 95.1689L45.8674 92.3336C44.4266 90.397 42.5328 88.8906 39.8923 87.5812C36.2688 85.784 35.405 85.6338 26.0914 85.1845C11.6779 84.4891 9.94136 83.4498 8.9052 74.9054C8.59886 72.3774 8.27247 56.7489 8.18038 40.1763L8.01249 10.0432L20.8549 10.0438V2.13994C20.8549 1.26693 20.8553 0.49012 20.8582 -0.201874C20.8806 -5.62688 21.0521 -5.8395 22.3283 -6.32808C23.4233 -6.7471 23.7854 -7.35101 23.7378 -8.67873C23.6777 -10.3668 23.5286 -10.4589 21.0347 -10.3479C17.321 -10.1832 14.1186 -8.46545 12.2655 -5.64404L10.6787 -3.22901L7.77945 -6.31358C5.85936 -8.35628 4.03386 -9.63036 2.37438 -10.086C-0.540526 -10.8861 -2.91605 -10.9833 -3.03069 -10.3075ZM46.3041 13.0154C46.0597 13.2615 44.7216 13.3801 43.3303 13.2792C40.5751 13.0785 38.3957 14.446 38.3957 16.3751C38.3957 18.1704 40.1792 19.1385 43.1492 18.9542C46.4676 18.7485 46.5597 19.1612 44.6114 25.5152C43.0759 30.5225 43.3603 32.3273 45.8486 33.3654C48.1527 34.3271 50.1123 33.4127 50.6867 31.1075C51.0495 29.6523 50.2714 23.268 49.2973 19.7064C48.9333 18.3762 49.0479 18.3389 52.4283 18.6904C55.6558 19.0261 55.9365 18.9523 55.9365 17.7729C55.9365 16.8654 55.201 16.1946 53.4181 15.4765C52.033 14.918 50.517 14.4611 50.049 14.4611C49.5817 14.4611 48.8481 14.0352 48.419 13.5146C47.5607 12.4727 46.9794 12.3358 46.3041 13.0154ZM12.0845 14.6422C12.0845 15.113 13.9168 17.7186 16.1564 20.4321C18.396 23.1456 20.261 25.8231 20.3004 26.3816C20.3405 26.9407 20.4107 27.6904 20.4571 28.0488C20.5034 28.4066 22.7969 30.7201 25.5533 33.1894C28.3097 35.658 32.106 39.2701 33.9892 41.215L37.4134 44.7514H31.5729C26.238 44.7514 25.7757 44.8467 26.2317 45.8557C26.8707 47.268 26.8751 50.4302 26.2399 51.8292C25.7945 52.8118 26.3896 52.9292 32.6479 53.0913L39.5471 53.2706L29.52 63.9983C19.8106 74.386 18.4048 76.1744 17.4169 79.3946C16.9771 80.8296 17.0604 80.8858 19.0319 80.4889C21.8635 79.9184 25.7387 76.5581 37.092 64.8282C42.4044 59.3393 47.0358 54.8482 47.3834 54.8482C47.7311 54.8482 52.1238 58.9317 57.1443 63.9233C71.1324 77.829 75.4356 81.3099 77.6019 80.4725C79.7901 79.6269 76.2437 74.8505 63.9232 62.0522L55.1653 52.955H78.3981L79.6961 51.2922C81.3637 49.1574 81.3305 48.3705 79.4825 46.2066L77.9708 44.4359L56.8761 44.8133L65.1767 36.5409C69.7592 31.974 73.4773 27.7554 73.4773 27.1231C73.4773 26.4933 75.3096 23.5671 77.5492 20.6202C83.6039 12.6532 82.6774 11.7836 75.3566 18.5629C71.7038 21.946 69.9271 23.1507 67.5503 23.8562C66.4183 24.1919 62.7937 27.9517 50.2589 41.7918L47.4003 44.9483L39.3115 36.597C34.8631 32.0042 30.5368 27.2746 29.6979 26.0863C28.7551 24.7516 27.6475 23.9268 26.7987 23.9268C25.3303 23.9268 23.704 22.8503 17.9287 18.0556C13.2973 14.2106 12.0845 13.5019 12.0845 14.6422ZM15.6597 46.0236C12.4722 48.5491 14.0515 52.955 18.1448 52.955C22.9215 52.955 23.61 46.1946 18.9486 45.0657C17.841 44.7975 16.838 45.0897 15.6597 46.0236ZM21.4813 44.99C21.4813 45.1212 21.8923 46.2192 22.3947 47.4302C23.1859 49.3379 23.1884 49.7897 22.4147 50.8202C21.1493 52.5026 21.2683 52.955 22.9754 52.955C24.4877 52.955 26.493 50.6776 26.493 48.9605C26.493 47.5185 23.9915 44.7514 22.6885 44.7514C22.0245 44.7514 21.4813 44.8587 21.4813 44.99ZM17.1256 48.1868C16.2673 49.2281 16.739 50.4308 18.0057 50.4308C19.2029 50.4308 19.6765 48.7541 18.708 47.9451C18.106 47.4416 17.6869 47.5053 17.1256 48.1868ZM44.1835 66.6727C41.548 66.8583 40.691 67.206 39.9098 68.4068C39.1267 69.6102 39.0791 70.1832 39.6686 71.2933C40.3195 72.5188 40.7574 72.6355 43.4718 72.3118C46.3272 71.971 46.5396 72.0423 46.5396 73.3378C46.5396 74.1039 45.9902 76.6654 45.3186 79.0312C44.0206 83.6037 44.2938 85.8818 46.2295 86.6302C48.2292 87.4033 49.6518 87.0183 50.6886 85.4237C51.5964 84.0284 51.6446 83.2169 51.0513 79.271C50.6755 76.7714 50.1668 74.0427 49.9212 73.2079C49.4777 71.7009 49.5009 71.6927 52.9526 72.101C55.704 72.4266 56.5047 72.3193 56.7841 71.5861C57.1718 70.5676 55.0106 68.7312 53.4237 68.7312C52.8844 68.7312 51.337 68.1633 49.9851 67.4691C48.6332 66.775 47.5169 66.2594 47.5037 66.3237C47.4899 66.3881 45.9958 66.5446 44.1835 66.6727Z" fill="#05598F"/>
<path d="M27.4327 9.72828L27.2618 -0.201874H20.8582C20.8553 0.49012 20.8549 1.26693 20.8549 2.13994V10.0438L65.1473 10.0432L27.4327 9.72828Z" fill="#05598F"/>
<path d="M67.2052 -0.201874L67.3402 10.0432L72.8508 10.0438V2.13994C72.8508 1.26695 72.8503 0.490135 72.8474 -0.201874H67.2052Z" fill="#05598F"/>
</g>
<path d="M143.476 102.599L135.011 102.599L135.011 75.2778L143.476 75.2778L143.476 83.9762L165.484 83.9762L165.484 93.9005L143.476 93.9005L143.476 102.599ZM138.63 68.2806C135.711 65.3617 134.252 61.606 134.252 57.0136C134.252 52.4212 135.711 48.6655 138.63 45.7466C141.549 42.8277 145.422 41.3682 150.248 41.3682C155.074 41.3682 158.946 42.8277 161.865 45.7466C164.784 48.6655 166.243 52.4212 166.243 57.0136C166.243 61.606 164.784 65.3617 161.865 68.2806C158.946 71.1996 155.074 72.659 150.248 72.659C145.422 72.659 141.549 71.1996 138.63 68.2806ZM155.677 61.2169C157.039 60.205 157.72 58.8039 157.72 57.0136C157.72 55.2233 157.039 53.8223 155.677 52.8104C154.276 51.7985 152.466 51.2925 150.248 51.2925C148.029 51.2925 146.239 51.7985 144.877 52.8104C143.476 53.8223 142.775 55.2233 142.775 57.0136C142.775 58.8039 143.476 60.205 144.877 61.2169C146.239 62.2287 148.029 62.7347 150.248 62.7347C152.466 62.7347 154.276 62.2287 155.677 61.2169ZM135.011 36.1926L135.011 7.35368L165.484 7.35367L165.484 17.278L143.476 17.278L143.476 26.2683L165.484 26.2683L165.484 36.1926L135.011 36.1926Z" fill="#05598F"/>
<path d="M217.332 2.88799V93H194.932V27.208L175.604 39.624V17.352L196.724 2.88799H217.332Z" fill="#05598F"/>
<path d="M238.612 14.024C245.524 5.49066 254.612 1.224 265.876 1.224C277.14 1.224 286.186 5.49066 293.012 14.024C299.924 22.5573 303.38 33.864 303.38 47.944C303.38 62.024 299.924 73.3307 293.012 81.864C286.186 90.3973 277.14 94.664 265.876 94.664C254.612 94.664 245.524 90.3973 238.612 81.864C231.786 73.3307 228.372 62.024 228.372 47.944C228.372 33.864 231.786 22.5573 238.612 14.024ZM254.868 67.528C257.343 72.4773 261.012 74.952 265.876 74.952C270.74 74.952 274.41 72.4773 276.884 67.528C279.359 62.5787 280.596 56.0507 280.596 47.944C280.596 39.8373 279.359 33.3093 276.884 28.36C274.41 23.4107 270.74 20.936 265.876 20.936C261.012 20.936 257.343 23.4107 254.868 28.36C252.394 33.3093 251.156 39.8373 251.156 47.944C251.156 56.0507 252.394 62.5787 254.868 67.528Z" fill="#05598F"/>
<path d="M318.612 14.024C325.524 5.49066 334.612 1.224 345.876 1.224C357.14 1.224 366.186 5.49066 373.012 14.024C379.924 22.5573 383.38 33.864 383.38 47.944C383.38 62.024 379.924 73.3307 373.012 81.864C366.186 90.3973 357.14 94.664 345.876 94.664C334.612 94.664 325.524 90.3973 318.612 81.864C311.786 73.3307 308.372 62.024 308.372 47.944C308.372 33.864 311.786 22.5573 318.612 14.024ZM334.868 67.528C337.343 72.4773 341.012 74.952 345.876 74.952C350.74 74.952 354.41 72.4773 356.884 67.528C359.359 62.5787 360.596 56.0507 360.596 47.944C360.596 39.8373 359.359 33.3093 356.884 28.36C354.41 23.4107 350.74 20.936 345.876 20.936C341.012 20.936 337.343 23.4107 334.868 28.36C332.394 33.3093 331.156 39.8373 331.156 47.944C331.156 56.0507 332.394 62.5787 334.868 67.528Z" fill="#05598F"/>
<path d="M408.87 44V13.5265H423.99C427.532 13.5265 430.237 14.2465 432.105 15.6865C433.973 17.1265 434.907 19.0335 434.907 21.4076C434.907 23.0811 434.479 24.4822 433.623 25.6108C432.767 26.7005 431.638 27.4984 430.237 28.0043C431.91 28.4324 433.272 29.2692 434.323 30.5146C435.413 31.76 435.958 33.3557 435.958 35.3016C435.958 37.8703 434.946 39.9719 432.922 41.6065C430.898 43.2022 427.999 44 424.224 44H408.87ZM422.94 31.7405H418.561V37.2865H422.94C423.912 37.2865 424.671 37.053 425.216 36.5859C425.8 36.08 426.092 35.3795 426.092 34.4843C426.092 32.6551 425.041 31.7405 422.94 31.7405ZM422.414 20.24H418.561V25.2605H422.356C423.251 25.2605 423.951 25.0465 424.457 24.6184C424.963 24.1514 425.216 23.5286 425.216 22.7503C425.216 21.0768 424.282 20.24 422.414 20.24ZM438.628 44.1168V35.6519H439.737C441.099 35.6519 442.092 35.3016 442.714 34.6011C443.376 33.8616 443.765 32.6746 443.882 31.04L445.225 13.5265H470.327V44H460.403V21.9914H453.865L453.164 31.7405C452.853 36.0605 451.724 39.213 449.778 41.1978C447.871 43.1438 445.03 44.1168 441.255 44.1168H438.628ZM506.476 13.5265V44H496.785V28.0627L486.452 44H477.111V13.5265H486.802V29.4638L497.135 13.5265H506.476ZM539.351 44H529.602V35.0681H526.741L521.429 44H510.629L517.226 33.0249C514.034 31.04 512.439 28.1211 512.439 24.2681C512.439 21.1157 513.47 18.547 515.533 16.5622C517.634 14.5384 520.631 13.5265 524.523 13.5265H539.351V44ZM522.246 24.3849C522.246 25.3968 522.558 26.2141 523.18 26.8368C523.842 27.4205 524.756 27.7124 525.924 27.7124H529.602V21.0573H525.924C524.795 21.0573 523.9 21.3686 523.239 21.9914C522.577 22.6141 522.246 23.4119 522.246 24.3849ZM544.166 21.9914V13.5265H571.487V21.9914H562.789V44H552.864V21.9914H544.166ZM603.995 31.5654H584.03V31.6822C584.03 33.2 584.575 34.4843 585.665 35.5351C586.793 36.5859 588.214 37.1114 589.926 37.1114C591.055 37.1114 591.989 36.8973 592.728 36.4692C593.507 36.0022 593.993 35.4962 594.188 34.9514H603.704C603.237 37.5589 601.816 39.8551 599.442 41.84C597.107 43.7859 593.877 44.7589 589.751 44.7589C584.964 44.7589 581.15 43.3578 578.309 40.5557C575.507 37.7535 574.106 33.8811 574.106 28.9384C574.106 23.9957 575.487 20.0649 578.251 17.1459C581.014 14.227 584.672 12.7676 589.226 12.7676C593.74 12.7676 597.321 14.1881 599.967 17.0292C602.653 19.8703 603.995 23.6843 603.995 28.4714V31.5654ZM589.401 20.2984C587.961 20.2984 586.774 20.707 585.84 21.5243C584.945 22.3027 584.38 23.4314 584.147 24.9103H594.363C594.246 23.5092 593.74 22.4 592.845 21.5827C591.95 20.7265 590.802 20.2984 589.401 20.2984ZM606.58 44.1168V35.6519H607.689C609.051 35.6519 610.043 35.3016 610.666 34.6011C611.328 33.8616 611.717 32.6746 611.834 31.04L613.176 13.5265H638.279V44H628.355V21.9914H621.816L621.116 31.7405C620.805 36.0605 619.676 39.213 617.73 41.1978C615.823 43.1438 612.982 44.1168 609.207 44.1168H606.58ZM654.813 13.5265V21.6995H659.483C663.18 21.6995 666.118 22.7503 668.298 24.8519C670.477 26.9146 671.567 29.5611 671.567 32.7914C671.567 36.0605 670.458 38.7459 668.24 40.8476C666.06 42.9492 663.141 44 659.483 44H645.063V13.5265H654.813ZM658.257 29.5222H654.813V36.1773H658.257C659.308 36.1773 660.164 35.8659 660.825 35.2432C661.487 34.5816 661.818 33.7643 661.818 32.7914C661.818 31.8184 661.487 31.04 660.825 30.4562C660.203 29.8335 659.347 29.5222 658.257 29.5222ZM686.628 44H676.704V13.5265H686.628V24.2097H695.794V13.5265H705.718V44H695.794V32.6746H686.628V44ZM722.255 13.5265V21.6995H726.926C730.623 21.6995 733.561 22.7503 735.741 24.8519C737.92 26.9146 739.01 29.5611 739.01 32.7914C739.01 36.0605 737.901 38.7459 735.683 40.8476C733.503 42.9492 730.584 44 726.926 44H712.506V13.5265H722.255ZM751.503 13.5265V44H741.754V13.5265H751.503ZM725.7 29.5222H722.255V36.1773H725.7C726.751 36.1773 727.607 35.8659 728.268 35.2432C728.93 34.5816 729.261 33.7643 729.261 32.7914C729.261 31.8184 728.93 31.04 728.268 30.4562C727.646 29.8335 726.79 29.5222 725.7 29.5222ZM776.383 44L771.07 35.5351L765.816 44H755.133L765.349 28.7049L755.25 13.5265H766.4L771.654 22.1665L776.967 13.5265H787.475L777.375 28.9384L787.591 44H776.383ZM801.269 44.1168V35.6519H802.378C803.741 35.6519 804.733 35.3016 805.356 34.6011C806.017 33.8616 806.407 32.6746 806.523 31.04L807.866 13.5265H832.969V44H823.044V21.9914H816.506L815.805 31.7405C815.494 36.0605 814.365 39.213 812.42 41.1978C810.513 43.1438 807.671 44.1168 803.896 44.1168H801.269ZM849.677 44H839.753V13.5265H849.677V24.2097H853.589C854.445 20.6681 856.216 17.8854 858.901 15.8616C861.586 13.7989 864.817 12.7676 868.592 12.7676C873.184 12.7676 876.901 14.227 879.742 17.1459C882.622 20.0649 884.062 23.9373 884.062 28.7632C884.062 33.5892 882.622 37.4616 879.742 40.3805C876.901 43.2995 873.184 44.7589 868.592 44.7589C864.661 44.7589 861.333 43.6886 858.609 41.5481C855.924 39.3686 854.211 36.4108 853.472 32.6746H849.677V44ZM864.505 34.1924C865.478 35.5546 866.84 36.2357 868.592 36.2357C870.343 36.2357 871.705 35.5546 872.678 34.1924C873.651 32.7914 874.138 30.9816 874.138 28.7632C874.138 26.5449 873.651 24.7546 872.678 23.3924C871.705 21.9913 870.343 21.2908 868.592 21.2908C866.84 21.2908 865.478 21.9913 864.505 23.3924C863.532 24.7546 863.046 26.5449 863.046 28.7632C863.046 30.9816 863.532 32.7914 864.505 34.1924ZM922.809 35.5351V51.4724H913.294V44H896.072V51.4724H886.556V35.5351H888.833C890.39 34.6011 891.343 32.0714 891.694 27.9459L892.745 13.5265H918.548V35.5351H922.809ZM900.918 28.4714C900.645 31.8573 899.964 34.2119 898.874 35.5351H908.623V21.9914H901.385L900.918 28.4714ZM955.862 31.5654H935.897V31.6822C935.897 33.2 936.442 34.4843 937.531 35.5351C938.66 36.5859 940.08 37.1114 941.793 37.1114C942.922 37.1114 943.856 36.8973 944.595 36.4692C945.373 36.0022 945.86 35.4962 946.054 34.9514H955.57C955.103 37.5589 953.683 39.8551 951.309 41.84C948.973 43.7859 945.743 44.7589 941.618 44.7589C936.831 44.7589 933.017 43.3578 930.176 40.5557C927.373 37.7535 925.972 33.8811 925.972 28.9384C925.972 23.9957 927.354 20.0649 930.117 17.1459C932.88 14.227 936.539 12.7676 941.092 12.7676C945.607 12.7676 949.187 14.1881 951.834 17.0292C954.519 19.8703 955.862 23.6843 955.862 28.4714V31.5654ZM941.267 20.2984C939.827 20.2984 938.64 20.707 937.706 21.5243C936.811 22.3027 936.247 23.4314 936.013 24.9103H946.23C946.113 23.5092 945.607 22.4 944.712 21.5827C943.817 20.7265 942.669 20.2984 941.267 20.2984ZM990.435 13.5265V44H980.744V28.0627L970.411 44H961.071V13.5265H970.761V29.4638L981.094 13.5265H990.435ZM971.929 0.157834C971.929 1.40324 972.26 2.45405 972.921 3.31027C973.583 4.12756 974.536 4.53621 975.782 4.53621C977.027 4.53621 977.981 4.12756 978.642 3.31027C979.304 2.45405 979.635 1.40324 979.635 0.157834H986.757C986.757 3.3881 985.784 5.95675 983.838 7.86378C981.892 9.77081 979.207 10.7243 975.782 10.7243C972.357 10.7243 969.672 9.77081 967.726 7.86378C965.78 5.95675 964.807 3.3881 964.807 0.157834H971.929ZM406.885 70.9914V62.5265H434.207V70.9914H425.508V93H415.584V70.9914H406.885ZM457.886 62.5265H468.453L452.632 104.15H442.124L446.736 92.0076L435.586 62.5265H446.211L451.99 80.3319L457.886 62.5265ZM468.045 93.1168V84.6519H469.154C470.516 84.6519 471.509 84.3016 472.132 83.6011C472.793 82.8616 473.182 81.6746 473.299 80.04L474.642 62.5265H499.744V93H489.82V70.9914H483.282L482.581 80.7405C482.27 85.0605 481.141 88.213 479.195 90.1978C477.288 92.1438 474.447 93.1168 470.672 93.1168H468.045ZM516.278 62.5265V70.6995H520.948C524.645 70.6995 527.584 71.7503 529.763 73.8519C531.943 75.9146 533.032 78.5611 533.032 81.7914C533.032 85.0605 531.923 87.7459 529.705 89.8476C527.525 91.9492 524.607 93 520.948 93H506.529V62.5265H516.278ZM519.722 78.5222H516.278V85.1773H519.722C520.773 85.1773 521.629 84.8659 522.291 84.2432C522.952 83.5816 523.283 82.7643 523.283 81.7914C523.283 80.8184 522.952 80.04 522.291 79.4562C521.668 78.8335 520.812 78.5222 519.722 78.5222ZM552.063 85.2357C554.671 85.2357 556.286 84.0097 556.909 81.5578H566.308C566.035 85.1773 564.615 88.1157 562.046 90.373C559.477 92.6303 556.13 93.7589 552.005 93.7589C547.335 93.7589 543.599 92.2605 540.796 89.2638C537.994 86.267 536.593 82.4335 536.593 77.7632C536.593 73.1319 537.994 69.3178 540.796 66.3211C543.599 63.2854 547.335 61.7676 552.005 61.7676C556.13 61.7676 559.439 62.9157 561.929 65.2119C564.459 67.5081 565.88 70.4076 566.191 73.9103H556.734C556.072 71.4973 554.496 70.2908 552.005 70.2908C550.331 70.2908 548.989 70.9719 547.977 72.3341C547.004 73.6962 546.517 75.5059 546.517 77.7632C546.517 80.0984 547.004 81.9276 547.977 83.2508C548.989 84.5741 550.351 85.2357 552.063 85.2357ZM581.274 93H571.349V62.5265H581.274V74.1438L590.03 62.5265H600.947L590.089 76.8292L601.239 93H589.914L581.274 80.04V93ZM606.191 66.1459C609.11 63.227 612.866 61.7676 617.458 61.7676C622.051 61.7676 625.806 63.227 628.725 66.1459C631.644 69.0649 633.104 72.9373 633.104 77.7632C633.104 82.5892 631.644 86.4616 628.725 89.3805C625.806 92.2995 622.051 93.7589 617.458 93.7589C612.866 93.7589 609.11 92.2995 606.191 89.3805C603.272 86.4616 601.813 82.5892 601.813 77.7632C601.813 72.9373 603.272 69.0649 606.191 66.1459ZM613.255 83.1924C614.267 84.5546 615.668 85.2357 617.458 85.2357C619.248 85.2357 620.649 84.5546 621.661 83.1924C622.673 81.7914 623.179 79.9816 623.179 77.7632C623.179 75.5449 622.673 73.7546 621.661 72.3924C620.649 70.9913 619.248 70.2908 617.458 70.2908C615.668 70.2908 614.267 70.9913 613.255 72.3924C612.243 73.7546 611.737 75.5449 611.737 77.7632C611.737 79.9816 612.243 81.7914 613.255 83.1924ZM660.521 70.9914H648.203V93H638.279V62.5265H660.521V70.9914ZM667.705 66.1459C670.624 63.227 674.38 61.7676 678.972 61.7676C683.564 61.7676 687.32 63.227 690.239 66.1459C693.158 69.0649 694.617 72.9373 694.617 77.7632C694.617 82.5892 693.158 86.4616 690.239 89.3805C687.32 92.2995 683.564 93.7589 678.972 93.7589C674.38 93.7589 670.624 92.2995 667.705 89.3805C664.786 86.4616 663.327 82.5892 663.327 77.7632C663.327 72.9373 664.786 69.0649 667.705 66.1459ZM674.769 83.1924C675.781 84.5546 677.182 85.2357 678.972 85.2357C680.762 85.2357 682.163 84.5546 683.175 83.1924C684.187 81.7914 684.693 79.9816 684.693 77.7632C684.693 75.5449 684.187 73.7546 683.175 72.3924C682.163 70.9913 680.762 70.2908 678.972 70.2908C677.182 70.2908 675.781 70.9913 674.769 72.3924C673.757 73.7546 673.251 75.5449 673.251 77.7632C673.251 79.9816 673.757 81.7914 674.769 83.1924ZM730.316 61.7676C734.091 61.7676 737.204 63.2076 739.656 66.0876C742.108 68.9676 743.334 72.8595 743.334 77.7632C743.334 82.5892 742.089 86.4616 739.598 89.3805C737.146 92.2995 733.974 93.7589 730.082 93.7589C726.502 93.7589 723.894 92.6108 722.26 90.3146V104.15H712.335V62.5265H721.851V65.7957C723.641 63.1103 726.463 61.7676 730.316 61.7676ZM723.602 83.2508C724.653 84.5741 726.035 85.2357 727.747 85.2357C729.46 85.2357 730.822 84.5741 731.834 83.2508C732.884 81.8886 733.41 80.0595 733.41 77.7632C733.41 75.5059 732.884 73.6962 731.834 72.3341C730.822 70.9719 729.46 70.2908 727.747 70.2908C726.035 70.2908 724.653 70.9719 723.602 72.3341C722.59 73.6573 722.084 75.4281 722.084 77.6465V77.88C722.084 80.0984 722.59 81.8886 723.602 83.2508ZM776.85 80.5654H756.885V80.6822C756.885 82.2 757.43 83.4843 758.519 84.5351C759.648 85.5859 761.069 86.1114 762.781 86.1114C763.91 86.1114 764.844 85.8973 765.583 85.4692C766.362 85.0022 766.848 84.4962 767.043 83.9514H776.558C776.091 86.5589 774.671 88.8551 772.297 90.84C769.962 92.7859 766.731 93.7589 762.606 93.7589C757.819 93.7589 754.005 92.3578 751.164 89.5557C748.362 86.7535 746.96 82.8811 746.96 77.9384C746.96 72.9957 748.342 69.0649 751.105 66.1459C753.869 63.227 757.527 61.7676 762.08 61.7676C766.595 61.7676 770.176 63.1881 772.822 66.0292C775.508 68.8703 776.85 72.6843 776.85 77.4714V80.5654ZM762.256 69.2984C760.816 69.2984 759.629 69.707 758.695 70.5243C757.799 71.3027 757.235 72.4314 757.002 73.9103H767.218C767.101 72.5092 766.595 71.4 765.7 70.5827C764.805 69.7265 763.657 69.2984 762.256 69.2984ZM804.301 70.9914H791.983V93H782.059V62.5265H804.301V70.9914ZM838.617 62.5265V93H828.926V77.0627L818.593 93H809.253V62.5265H818.943V78.4638L829.276 62.5265H838.617ZM848.199 66.1459C851.118 63.227 854.874 61.7676 859.466 61.7676C864.059 61.7676 867.814 63.227 870.733 66.1459C873.652 69.0649 875.112 72.9373 875.112 77.7632C875.112 82.5892 873.652 86.4616 870.733 89.3805C867.814 92.2995 864.059 93.7589 859.466 93.7589C854.874 93.7589 851.118 92.2995 848.199 89.3805C845.28 86.4616 843.821 82.5892 843.821 77.7632C843.821 72.9373 845.28 69.0649 848.199 66.1459ZM855.263 83.1924C856.275 84.5546 857.676 85.2357 859.466 85.2357C861.256 85.2357 862.657 84.5546 863.669 83.1924C864.681 81.7914 865.187 79.9816 865.187 77.7632C865.187 75.5449 864.681 73.7546 863.669 72.3924C862.657 70.9913 861.256 70.2908 859.466 70.2908C857.676 70.2908 856.275 70.9913 855.263 72.3924C854.251 73.7546 853.745 75.5449 853.745 77.7632C853.745 79.9816 854.251 81.7914 855.263 83.1924ZM890.211 93H880.287V62.5265H890.211V73.2097H899.377V62.5265H909.301V93H899.377V81.6746H890.211V93ZM933.253 72.8011C933.253 71.6724 932.864 70.8162 932.085 70.2324C931.307 69.6097 930.275 69.2984 928.991 69.2984C926.617 69.2984 925.235 70.1157 924.846 71.7503H915.681C916.07 68.8703 917.452 66.4962 919.826 64.6281C922.239 62.7211 925.449 61.7676 929.458 61.7676C933.622 61.7676 936.911 62.7405 939.324 64.6865C941.737 66.5935 942.944 69.4151 942.944 73.1514V93H933.837V89.8476C931.929 92.4551 929.011 93.7589 925.08 93.7589C922.044 93.7589 919.514 92.8832 917.491 91.1319C915.467 89.3805 914.455 86.987 914.455 83.9514C914.455 80.76 915.564 78.2886 917.782 76.5373C920.04 74.7859 923.173 73.9103 927.181 73.9103H933.253V72.8011ZM928.115 86.2281C929.555 86.2281 930.762 85.8195 931.735 85.0022C932.747 84.1459 933.253 82.9784 933.253 81.4995V80.507H927.94C926.889 80.507 926.033 80.7795 925.372 81.3243C924.71 81.8303 924.379 82.5114 924.379 83.3676C924.379 84.2627 924.71 84.9632 925.372 85.4692C926.033 85.9751 926.948 86.2281 928.115 86.2281Z" fill="#05598F"/>
<defs>
<linearGradient id="paint0_linear_2050_5737" x1="94.4837" y1="53.5015" x2="-0.000309743" y2="53.5015" gradientUnits="userSpaceOnUse">
<stop stop-color="#D2D2D2"/>
<stop offset="0.2279" stop-color="white"/>
<stop offset="0.414" stop-color="#C6C6C6"/>
<stop offset="0.586" stop-color="white"/>
<stop offset="0.7721" stop-color="white"/>
<stop offset="1" stop-color="white"/>
</linearGradient>
</defs>
</svg>