<svg width="682" height="90" viewBox="0 0 682 90" fill="none" xmlns="http://www.w3.org/2000/svg">
<mask id="mask0_2129_8355" style="mask-type:alpha" maskUnits="userSpaceOnUse" x="0" y="8" width="70" height="74">
<rect y="8" width="69.0489" height="73.8109" fill="url(#paint0_linear_2129_8355)"/>
</mask>
<g mask="url(#mask0_2129_8355)">
<path fill-rule="evenodd" clip-rule="evenodd" d="M33.3556 -49.4854C33.2503 -49.1524 32.8236 -46.7008 32.407 -44.0376C31.9903 -41.3743 31.3663 -37.6388 31.0202 -35.7365C30.6746 -33.8342 30.2694 -31.4993 30.1202 -30.5483C29.9508 -29.4674 29.5996 -28.819 29.1835 -28.819C28.8172 -28.819 28.0705 -28.3689 27.5244 -27.8187C26.9782 -27.2685 25.5873 -26.3291 24.4341 -25.7314C21.1145 -24.0113 18.1282 -20.4234 17.5069 -17.4087C17.2217 -16.0256 17.0875 -14.5125 17.2084 -14.0463C17.3306 -13.5759 17.1457 -13.0894 16.7922 -12.9529C15.9595 -12.631 15.9805 -11.5546 16.8335 -10.8412C18.0705 -9.80722 18.9032 -7.49261 18.9032 -5.08991C18.9032 -3.7848 19.1038 -2.51474 19.3487 -2.26801C19.5941 -2.02082 19.8514 1.49652 19.921 5.54882L19.9229 5.65997L20.0478 12.9169L47.6097 13.1471L49.2125 13.1604L49.2123 13.1471L49.1136 5.65997C48.9831 -4.16388 49.5435 -9.09425 50.9618 -10.6152C51.8476 -11.5647 51.9392 -11.9235 51.5176 -12.7915C51.2401 -13.3633 50.8766 -14.8621 50.7095 -16.1225C50.2077 -19.9151 48.6187 -22.4682 45.4217 -24.6186C43.8725 -25.6604 42.3269 -26.5131 41.9868 -26.5131C41.6466 -26.5131 41.1494 -26.9259 40.8811 -27.4299C40.6133 -27.9344 39.8955 -28.4731 39.2856 -28.6271C38.3833 -28.8554 38.0889 -29.3488 37.7016 -31.2844C37.0011 -34.7819 35.0582 -45.3473 34.6997 -47.6093C34.382 -49.6131 33.6975 -50.5682 33.3556 -49.4854ZM28.2885 -4.4249L39.7338 -4.39216V-11.7557H28.2885V-4.4249ZM32.7576 -1.17919C31.8086 0.495319 31.5444 0.652119 29.1597 0.951878L26.5863 1.27608L28.4656 2.94597C30.2589 4.53932 30.3262 4.69473 29.937 6.34526C29.4701 8.32645 29.4623 8.32276 32.3365 7.33632C34.3083 6.65978 34.6393 6.65978 36.3185 7.33632C37.3257 7.74261 38.272 8.07465 38.4217 8.07465C38.571 8.07465 38.5742 7.19289 38.4286 6.11468C38.1782 4.25847 38.2597 4.07815 39.9669 2.70755L41.7693 1.2604L39.2467 0.942657C36.9622 0.655346 36.6125 0.454735 35.5361 -1.18427C34.8824 -2.17901 34.2204 -2.99205 34.0647 -2.98974C33.9095 -2.9879 33.3212 -2.17301 32.7576 -1.17919ZM-2.21488 -1.72522C-2.55092 0.266117 -2.41311 0.79554 -1.46406 1.1594C-0.749063 1.43298 -0.378291 2.01358 -0.176718 5.65997C0.00839639 9.0086 0.0508161 14.9428 0.0861015 25.5991C0.164388 49.2129 0.514615 62.697 1.11985 65.4152C1.73836 68.1928 3.80081 70.3787 6.84346 71.4818C8.29382 72.008 11.3548 72.4106 15.6985 72.6477C19.4888 72.8543 23.3495 73.3274 24.6974 73.7513C27.0688 74.4965 27.7807 75.0624 31.8942 79.4698C35.033 82.8331 35.7344 82.7159 39.6011 78.1836C43.3822 73.7513 44.6696 73.2228 53.1053 72.6408C62.3463 72.0034 65.8257 70.7048 67.8062 67.1551C68.8537 65.2773 68.8573 65.2113 68.8175 47.6255C68.7955 37.9207 68.6861 23.5916 68.5739 15.7836L68.4287 5.65997L68.3702 1.58691L69.5033 1.15295C70.364 0.823212 70.6364 0.383717 70.6364 -0.676052C70.6364 -1.89124 70.4739 -2.07063 69.3774 -2.06833C66.1635 -2.06187 63.82 -0.74707 61.6678 2.25653L60.7151 3.58654L59.701 1.93417C58.4177 -0.157238 56.2244 -1.53152 53.5878 -1.89539C51.5469 -2.17716 51.5258 -2.16609 51.3125 -0.702339C51.1339 0.525295 51.2786 0.844421 52.1686 1.18523C53.0941 1.53976 53.2202 1.70213 53.2369 5.65997C53.2391 6.16569 53.2394 6.73339 53.2394 7.37136V13.1475H62.8535L62.8618 18.1051C62.8659 20.8315 62.9176 32.1247 62.9762 43.2001C63.0801 62.905 63.0623 63.3657 62.137 64.6445C60.4765 66.9407 58.4484 67.5979 52.2295 67.8534C49.1337 67.9811 45.5454 68.2887 44.2548 68.5377C41.2982 69.1082 38.1004 71.1309 36.3863 73.5147L35.0609 75.3571L33.5199 73.285C32.4669 71.8697 31.083 70.7689 29.1533 69.8119C26.5053 68.4985 25.8739 68.3888 19.0676 68.0604C8.53417 67.5522 7.26511 66.7927 6.50788 60.5484C6.28401 58.701 6.04548 47.2796 5.97819 35.1684L5.85549 13.1471L15.2407 13.1475V7.37136C15.2407 6.73337 15.241 6.16568 15.2431 5.65997C15.2595 1.69536 15.3849 1.53998 16.3175 1.18293C17.1178 0.876709 17.3824 0.435368 17.3476 -0.534935C17.3036 -1.76856 17.1947 -1.8359 15.3721 -1.75473C12.6582 -1.63437 10.3178 -0.379059 8.9636 1.68283L7.80395 3.44773L5.68518 1.19353C4.28198 -0.299278 2.94791 -1.23038 1.73515 -1.56334C-0.395064 -2.14811 -2.1311 -2.21913 -2.21488 -1.72522ZM33.839 15.3192C33.6605 15.499 32.6826 15.5857 31.6658 15.5119C29.6523 15.3653 28.0595 16.3646 28.0595 17.7744C28.0595 19.0865 29.3629 19.7939 31.5335 19.6592C33.9585 19.5089 34.0258 19.8105 32.602 24.454C31.4799 28.1134 31.6877 29.4324 33.5062 30.191C35.19 30.8938 36.6221 30.2256 37.0419 28.5409C37.307 27.4775 36.7384 22.8118 36.0265 20.209C35.7605 19.2368 35.8442 19.2096 38.3146 19.4665C40.6733 19.7118 40.8784 19.6579 40.8784 18.7959C40.8784 18.1328 40.3409 17.6425 39.038 17.1177C38.0257 16.7096 36.9178 16.3757 36.5758 16.3757C36.2343 16.3757 35.6982 16.0644 35.3846 15.684C34.7574 14.9226 34.3325 14.8225 33.839 15.3192ZM8.83129 16.5081C8.83129 16.8521 10.1704 18.7563 11.8071 20.7393C13.4438 22.7223 14.8067 24.6791 14.8355 25.0872C14.8648 25.4958 14.9161 26.0437 14.95 26.3056C14.9839 26.5671 16.6599 28.2578 18.6743 30.0623C20.6887 31.8664 23.4631 34.5061 24.8393 35.9275L27.3417 38.5119H23.0735C19.1747 38.5119 18.8369 38.5815 19.1701 39.3189C19.6371 40.351 19.6403 42.6619 19.1761 43.6844C18.8506 44.4024 19.2855 44.4882 23.8591 44.6067L28.901 44.7377L21.5732 52.5776C14.4775 60.1689 13.4502 61.4758 12.7282 63.8292C12.4068 64.8779 12.4677 64.9189 13.9085 64.6289C15.9778 64.212 18.8098 61.7562 27.1068 53.184C30.9891 49.1727 34.3737 45.8906 34.6278 45.8906C34.8819 45.8906 38.0921 48.8748 41.761 52.5227C51.9836 62.685 55.1283 65.2288 56.7115 64.6169C58.3106 63.9989 55.7189 60.5083 46.7151 51.1553L40.3148 44.5071H57.2934L58.242 43.2919C59.4607 41.7318 59.4364 41.1567 58.0858 39.5753L56.9811 38.2813L41.5651 38.5571L47.6312 32.5116C50.9801 29.1741 53.6972 26.0912 53.6972 25.6291C53.6972 25.1688 55.0363 23.0304 56.673 20.8767C61.0978 15.0545 60.4207 14.419 55.0707 19.3733C52.4011 21.8456 51.1028 22.726 49.3658 23.2416C48.5386 23.487 45.8896 26.2346 36.7292 36.349L34.6402 38.6558L28.7289 32.5526C25.4779 29.1962 22.3162 25.7398 21.7032 24.8714C21.0142 23.896 20.2048 23.2933 19.5845 23.2933C18.5113 23.2933 17.3229 22.5065 13.1023 19.0025C9.71763 16.1926 8.83129 15.6747 8.83129 16.5081ZM11.444 39.4416C9.11468 41.2872 10.2688 44.5071 13.2602 44.5071C16.751 44.5071 17.2542 39.5666 13.8476 38.7415C13.0382 38.5455 12.3052 38.7591 11.444 39.4416ZM15.6985 38.6862C15.6985 38.7821 15.9989 39.5846 16.366 40.4695C16.9442 41.8637 16.9461 42.1939 16.3807 42.9469C15.4559 44.1764 15.5429 44.5071 16.7904 44.5071C17.8956 44.5071 19.3611 42.8427 19.3611 41.5879C19.3611 40.5341 17.533 38.5119 16.5807 38.5119C16.0955 38.5119 15.6985 38.5903 15.6985 38.6862ZM12.5153 41.0225C11.8881 41.7834 12.2329 42.6624 13.1586 42.6624C14.0335 42.6624 14.3796 41.4371 13.6718 40.8459C13.2318 40.4778 12.9255 40.5244 12.5153 41.0225ZM32.2893 54.532C30.3633 54.6676 29.737 54.9217 29.1661 55.7993C28.5938 56.6787 28.559 57.0975 28.9898 57.9087C29.4655 58.8043 29.7855 58.8896 31.7692 58.653C33.8559 58.404 34.0112 58.4561 34.0112 59.4029C34.0112 59.9627 33.6096 61.8346 33.1189 63.5636C32.1703 66.9052 32.3699 68.57 33.7845 69.117C35.2459 69.6819 36.2856 69.4006 37.0433 68.2352C37.7066 67.2156 37.7419 66.6225 37.3083 63.7388C37.0336 61.9121 36.6619 59.918 36.4824 59.3079C36.1583 58.2066 36.1752 58.2006 38.6978 58.499C40.7085 58.737 41.2936 58.6585 41.4978 58.1227C41.7812 57.3783 40.2017 56.0363 39.0421 56.0363C38.6479 56.0363 37.5171 55.6213 36.5291 55.114C35.5412 54.6067 34.7253 54.2299 34.7157 54.277C34.7057 54.324 33.6138 54.4384 32.2893 54.532Z" fill="#05598F"/>
<path d="M20.0478 12.9169L19.9229 5.65997H15.2431C15.241 6.16568 15.2407 6.73337 15.2407 7.37136V13.1475L47.6097 13.1471L20.0478 12.9169Z" fill="#05598F"/>
<path d="M49.1136 5.65997L49.2123 13.1471L53.2394 13.1475V7.37136C53.2394 6.73339 53.2391 6.16569 53.2369 5.65997H49.1136Z" fill="#05598F"/>
</g>
<path d="M94.5626 8.12538C97.2522 8.12538 99.3575 8.87492 100.879 10.374C102.422 11.851 103.193 13.78 103.193 16.1609C103.193 18.4977 102.411 20.4267 100.846 21.9478C99.3024 23.4469 97.2522 24.1964 94.6949 24.1964H91.2889V31.4053H85.3697V8.12538H94.5626ZM94.0335 13.1517H91.2889V19.1701H94.0335C95.0035 19.1701 95.7751 18.8945 96.3483 18.3434C96.9215 17.7702 97.2081 17.0427 97.2081 16.1609C97.2081 15.2571 96.9215 14.5296 96.3483 13.9784C95.7972 13.4273 95.0256 13.1517 94.0335 13.1517ZM122.461 13.3501H112.409V17.0868H121.833V22.1132H112.409V26.1805H122.461V31.4053H106.489V8.12538H122.461V13.3501ZM146.623 8.12538V31.4053H140.803V17.4836L132.04 31.4053H126.22V8.12538H132.04V22.047L140.803 8.12538H146.623ZM134.124 0.552806C134.124 1.25826 134.311 1.85348 134.686 2.33848C135.083 2.80143 135.656 3.03291 136.405 3.03291C137.155 3.03291 137.717 2.80143 138.092 2.33848C138.489 1.85348 138.687 1.25826 138.687 0.552806H142.754C142.754 2.36053 142.181 3.81552 141.035 4.91778C139.911 5.99801 138.367 6.53812 136.405 6.53812C134.443 6.53812 132.889 5.99801 131.743 4.91778C130.618 3.81552 130.056 2.36053 130.056 0.552806H134.124ZM149.862 13.3501V8.12538H169.008V13.3501H162.394V31.4053H156.475V13.3501H149.862ZM192.641 8.12538V31.4053H186.821V17.4836L178.058 31.4053H172.238V8.12538H178.058V22.047L186.821 8.12538H192.641ZM203.055 31.4053H197.136V8.12538H203.055V16.8553H211.256V8.12538H217.175V31.4053H211.256V22.1462H203.055V31.4053ZM237.419 13.3501H227.598V31.4053H221.678V8.12538H237.419V13.3501ZM107.33 51.2515C107.33 49.944 106.86 48.8817 105.92 48.0645C105.021 47.2474 103.816 46.8388 102.304 46.8388C100.752 46.8388 99.485 47.2474 98.5044 48.0645C97.5647 48.8408 96.9926 49.8827 96.7883 51.1902H86.3081C86.5941 47.1861 88.1876 43.8969 91.0886 41.3228C93.9895 38.7487 97.8098 37.4617 102.549 37.4617C107.412 37.4617 111.252 38.7283 114.072 41.2615C116.891 43.7948 118.3 46.9818 118.3 50.8225C118.3 53.5192 117.667 55.8686 116.401 57.8706C115.134 59.8318 113.295 61.8544 110.885 63.9382L101.446 72.0282H118.913V81.4053H86.6758V72.6411L103.04 58.1158C104.511 56.8083 105.593 55.6438 106.288 54.6224C106.983 53.6009 107.33 52.4773 107.33 51.2515ZM129.508 43.5905C132.817 39.5046 137.169 37.4617 142.562 37.4617C147.955 37.4617 152.286 39.5046 155.555 43.5905C158.865 47.6764 160.519 53.0902 160.519 59.8318C160.519 66.5735 158.865 71.9873 155.555 76.0732C152.286 80.1591 147.955 82.202 142.562 82.202C137.169 82.202 132.817 80.1591 129.508 76.0732C126.239 71.9873 124.605 66.5735 124.605 59.8318C124.605 53.0902 126.239 47.6764 129.508 43.5905ZM137.291 69.2089C138.476 71.5787 140.233 72.7636 142.562 72.7636C144.891 72.7636 146.648 71.5787 147.833 69.2089C149.018 66.8391 149.61 63.7134 149.61 59.8318C149.61 55.9503 149.018 52.8246 147.833 50.4548C146.648 48.085 144.891 46.9001 142.562 46.9001C140.233 46.9001 138.476 48.085 137.291 50.4548C136.106 52.8246 135.514 55.9503 135.514 59.8318C135.514 63.7134 136.106 66.8391 137.291 69.2089ZM187.531 51.2515C187.531 49.944 187.061 48.8817 186.122 48.0645C185.223 47.2474 184.017 46.8388 182.506 46.8388C180.953 46.8388 179.686 47.2474 178.706 48.0645C177.766 48.8408 177.194 49.8827 176.99 51.1902H166.509C166.795 47.1861 168.389 43.8969 171.29 41.3228C174.191 38.7487 178.011 37.4617 182.751 37.4617C187.613 37.4617 191.454 38.7283 194.273 41.2615C197.092 43.7948 198.502 46.9818 198.502 50.8225C198.502 53.5192 197.868 55.8686 196.602 57.8706C195.335 59.8318 193.497 61.8544 191.086 63.9382L181.648 72.0282H199.115V81.4053H166.877V72.6411L183.241 58.1158C184.712 56.8083 185.795 55.6438 186.489 54.6224C187.184 53.6009 187.531 52.4773 187.531 51.2515ZM226.195 51.2515C226.195 49.944 225.725 48.8817 224.786 48.0645C223.887 47.2474 222.682 46.8388 221.17 46.8388C219.617 46.8388 218.35 47.2474 217.37 48.0645C216.43 48.8408 215.858 49.8827 215.654 51.1902H205.174C205.46 47.1861 207.053 43.8969 209.954 41.3228C212.855 38.7487 216.675 37.4617 221.415 37.4617C226.277 37.4617 230.118 38.7283 232.937 41.2615C235.756 43.7948 237.166 46.9818 237.166 50.8225C237.166 53.5192 236.533 55.8686 235.266 57.8706C233.999 59.8318 232.161 61.8544 229.75 63.9382L220.312 72.0282H237.779V81.4053H205.541V72.6411L221.905 58.1158C223.376 56.8083 224.459 55.6438 225.153 54.6224C225.848 53.6009 226.195 52.4773 226.195 51.2515Z" fill="#05598F"/>
<path d="M251.515 38.9053V9.00189H264.003C267.147 9.00189 269.539 9.75231 271.182 11.2531C272.853 12.7257 273.688 14.5946 273.688 16.86C273.688 18.4458 273.306 19.7767 272.541 20.8528C271.805 21.9289 270.885 22.7218 269.78 23.2315C271.139 23.6562 272.315 24.4633 273.306 25.6526C274.297 26.8137 274.792 28.357 274.792 30.2826C274.792 32.8311 273.872 34.9125 272.031 36.5266C270.191 38.1124 267.713 38.9053 264.598 38.9053H251.515ZM263.494 26.5871H259.119V32.7037H263.494C264.598 32.7037 265.476 32.4347 266.127 31.8967C266.779 31.3586 267.104 30.6082 267.104 29.6454C267.104 28.6826 266.779 27.9322 266.127 27.3942C265.476 26.8561 264.598 26.5871 263.494 26.5871ZM262.772 15.2034H259.119V20.8103H262.899C263.918 20.8103 264.697 20.5555 265.235 20.0458C265.773 19.5077 266.042 18.8281 266.042 18.0069C266.042 16.1379 264.952 15.2034 262.772 15.2034ZM276.89 38.9902V32.8311H277.697C278.689 32.8311 279.411 32.5763 279.864 32.0666C280.345 31.5285 280.628 30.6649 280.713 29.4755L281.69 16.7326H299.955V38.9053H292.734V22.8917H287.977L287.467 29.9852C287.24 33.1285 286.419 35.4222 285.003 36.8664C283.616 38.2823 281.549 38.9902 278.802 38.9902H276.89ZM326.257 16.7326V38.9053H319.206V27.3092L311.687 38.9053H304.891V16.7326H311.942V28.3287L319.461 16.7326H326.257ZM350.177 38.9053H343.084V32.4064H341.002L337.137 38.9053H329.279L334.079 30.9197C331.756 29.4755 330.595 27.3517 330.595 24.5483C330.595 22.2545 331.346 20.3856 332.847 18.9414C334.376 17.4689 336.556 16.7326 339.388 16.7326H350.177V38.9053ZM337.731 24.6332C337.731 25.3695 337.958 25.9641 338.411 26.4172C338.893 26.842 339.558 27.0544 340.407 27.0544H343.084V22.2121H340.407C339.586 22.2121 338.935 22.4386 338.454 22.8917C337.972 23.3448 337.731 23.9253 337.731 24.6332ZM353.68 22.8917V16.7326H373.559V22.8917H367.23V38.9053H360.009V22.8917H353.68ZM397.213 29.8578H382.686V29.9428C382.686 31.0471 383.082 31.9816 383.875 32.7462C384.696 33.5108 385.73 33.8931 386.976 33.8931C387.797 33.8931 388.477 33.7373 389.015 33.4258C389.581 33.086 389.935 32.7179 390.077 32.3214H397C396.661 34.2187 395.627 35.8894 393.9 37.3336C392.2 38.7495 389.85 39.4575 386.848 39.4575C383.365 39.4575 380.59 38.438 378.523 36.3992C376.484 34.3603 375.465 31.5427 375.465 27.9464C375.465 24.35 376.47 21.49 378.481 19.3661C380.491 17.2423 383.153 16.1804 386.466 16.1804C389.751 16.1804 392.356 17.214 394.282 19.2812C396.236 21.3484 397.213 24.1235 397.213 27.6066V29.8578ZM386.594 21.6599C385.546 21.6599 384.682 21.9572 384.003 22.5519C383.351 23.1182 382.941 23.9394 382.771 25.0155H390.204C390.119 23.9961 389.751 23.189 389.1 22.5943C388.448 21.9714 387.613 21.6599 386.594 21.6599ZM399.093 38.9902V32.8311H399.9C400.891 32.8311 401.613 32.5763 402.066 32.0666C402.548 31.5285 402.831 30.6649 402.916 29.4755L403.893 16.7326H422.158V38.9053H414.937V22.8917H410.179L409.67 29.9852C409.443 33.1285 408.622 35.4222 407.206 36.8664C405.818 38.2823 403.751 38.9902 401.004 38.9902H399.093ZM434.187 16.7326V22.6793H437.586C440.276 22.6793 442.414 23.4439 443.999 24.973C445.585 26.4738 446.378 28.3994 446.378 30.7498C446.378 33.1285 445.571 35.0824 443.957 36.6115C442.371 38.1407 440.247 38.9053 437.586 38.9053H427.094V16.7326H434.187ZM436.694 28.3711H434.187V33.2134H436.694C437.458 33.2134 438.081 32.9869 438.562 32.5338C439.044 32.0524 439.285 31.4577 439.285 30.7498C439.285 30.0419 439.044 29.4755 438.562 29.0507C438.109 28.5977 437.486 28.3711 436.694 28.3711ZM457.337 38.9053H450.116V16.7326H457.337V24.5058H464.006V16.7326H471.226V38.9053H464.006V30.6649H457.337V38.9053ZM483.259 16.7326V22.6793H486.657C489.348 22.6793 491.486 23.4439 493.071 24.973C494.657 26.4738 495.45 28.3994 495.45 30.7498C495.45 33.1285 494.643 35.0824 493.029 36.6115C491.443 38.1407 489.319 38.9053 486.657 38.9053H476.166V16.7326H483.259ZM504.54 16.7326V38.9053H497.446V16.7326H504.54ZM485.765 28.3711H483.259V33.2134H485.765C486.53 33.2134 487.153 32.9869 487.634 32.5338C488.116 32.0524 488.356 31.4577 488.356 30.7498C488.356 30.0419 488.116 29.4755 487.634 29.0507C487.181 28.5977 486.558 28.3711 485.765 28.3711ZM522.643 38.9053L518.777 32.7462L514.954 38.9053H507.181L514.614 27.7765L507.266 16.7326H515.379L519.202 23.0191L523.067 16.7326H530.713L523.365 27.9464L530.798 38.9053H522.643ZM540.75 38.9902V32.8311H541.557C542.548 32.8311 543.27 32.5763 543.723 32.0666C544.205 31.5285 544.488 30.6649 544.573 29.4755L545.55 16.7326H563.815V38.9053H556.594V22.8917H551.836L551.327 29.9852C551.1 33.1285 550.279 35.4222 548.863 36.8664C547.475 38.2823 545.408 38.9902 542.661 38.9902H540.75ZM575.972 38.9053H568.751V16.7326H575.972V24.5058H578.818C579.441 21.9289 580.729 19.9042 582.683 18.4317C584.637 16.9308 586.987 16.1804 589.734 16.1804C593.076 16.1804 595.78 17.2423 597.847 19.3661C599.943 21.49 600.991 24.3076 600.991 27.8189C600.991 31.3303 599.943 34.1479 597.847 36.2717C595.78 38.3956 593.076 39.4575 589.734 39.4575C586.874 39.4575 584.453 38.6787 582.471 37.1213C580.517 35.5355 579.271 33.3833 578.733 30.6649H575.972V38.9053ZM586.761 31.7692C587.469 32.7604 588.46 33.2559 589.734 33.2559C591.009 33.2559 592 32.7604 592.708 31.7692C593.416 30.7498 593.77 29.433 593.77 27.8189C593.77 26.2048 593.416 24.9022 592.708 23.9111C592 22.8917 591.009 22.382 589.734 22.382C588.46 22.382 587.469 22.8917 586.761 23.9111C586.053 24.9022 585.699 26.2048 585.699 27.8189C585.699 29.433 586.053 30.7498 586.761 31.7692ZM629.183 32.7462V44.3423H622.26V38.9053H609.729V44.3423H602.805V32.7462H604.462C605.595 32.0666 606.288 30.2259 606.543 27.2243L607.308 16.7326H626.082V32.7462H629.183ZM613.255 27.6066C613.056 30.0702 612.561 31.7834 611.768 32.7462H618.861V22.8917H613.594L613.255 27.6066ZM653.233 29.8578H638.706V29.9428C638.706 31.0471 639.102 31.9816 639.895 32.7462C640.716 33.5108 641.75 33.8931 642.996 33.8931C643.817 33.8931 644.497 33.7373 645.035 33.4258C645.601 33.086 645.955 32.7179 646.096 32.3214H653.02C652.68 34.2187 651.647 35.8894 649.919 37.3336C648.22 38.7495 645.87 39.4575 642.868 39.4575C639.385 39.4575 636.61 38.438 634.543 36.3992C632.504 34.3603 631.485 31.5427 631.485 27.9464C631.485 24.35 632.49 21.49 634.5 19.3661C636.511 17.2423 639.173 16.1804 642.486 16.1804C645.771 16.1804 648.376 17.214 650.302 19.2812C652.256 21.3484 653.233 24.1235 653.233 27.6066V29.8578ZM642.613 21.6599C641.566 21.6599 640.702 21.9572 640.022 22.5519C639.371 23.1182 638.96 23.9394 638.791 25.0155H646.224C646.139 23.9961 645.771 23.189 645.12 22.5943C644.468 21.9714 643.633 21.6599 642.613 21.6599ZM678.388 16.7326V38.9053H671.337V27.3092L663.818 38.9053H657.022V16.7326H664.073V28.3287L671.592 16.7326H678.388ZM664.923 7.0055C664.923 7.91166 665.164 8.67624 665.645 9.29923C666.126 9.89389 666.82 10.1912 667.726 10.1912C668.632 10.1912 669.326 9.89389 669.808 9.29923C670.289 8.67624 670.53 7.91166 670.53 7.0055H675.712C675.712 9.35586 675.004 11.2248 673.588 12.6124C672.172 13.9999 670.218 14.6937 667.726 14.6937C665.234 14.6937 663.28 13.9999 661.865 12.6124C660.449 11.2248 659.741 9.35586 659.741 7.0055H664.923ZM249.901 57.7132V51.0019H274.495V57.7132H266V80.9053H258.397V57.7132H249.901ZM290.903 58.7326H298.591L287.08 89.0183H279.434L282.79 80.1832L274.677 58.7326H282.408L286.613 71.6879L290.903 58.7326ZM298.294 80.9902V74.8311H299.102C300.093 74.8311 300.815 74.5763 301.268 74.0666C301.749 73.5285 302.032 72.6649 302.117 71.4755L303.094 58.7326H321.359V80.9053H314.138V64.8917H309.381L308.871 71.9852C308.645 75.1285 307.823 77.4222 306.407 78.8664C305.02 80.2823 302.953 80.9902 300.206 80.9902H298.294ZM333.389 58.7326V64.6793H336.787C339.477 64.6793 341.615 65.4439 343.201 66.973C344.787 68.4738 345.58 70.3994 345.58 72.7498C345.58 75.1285 344.773 77.0824 343.159 78.6115C341.573 80.1407 339.449 80.9053 336.787 80.9053H326.295V58.7326H333.389ZM335.895 70.3711H333.389V75.2134H335.895C336.66 75.2134 337.283 74.9869 337.764 74.5338C338.245 74.0524 338.486 73.4577 338.486 72.7498C338.486 72.0419 338.245 71.4755 337.764 71.0507C337.311 70.5977 336.688 70.3711 335.895 70.3711ZM359.427 75.2559C361.324 75.2559 362.499 74.3639 362.952 72.5799H369.791C369.593 75.2134 368.559 77.3514 366.69 78.9938C364.821 80.6363 362.386 81.4575 359.384 81.4575C355.986 81.4575 353.268 80.3672 351.229 78.1868C349.19 76.0063 348.17 73.217 348.17 69.8189C348.17 66.4491 349.19 63.674 351.229 61.4936C353.268 59.2848 355.986 58.1804 359.384 58.1804C362.386 58.1804 364.793 59.0158 366.605 60.6865C368.446 62.3572 369.479 64.4669 369.706 67.0155H362.825C362.343 65.2598 361.196 64.382 359.384 64.382C358.166 64.382 357.19 64.8775 356.453 65.8686C355.745 66.8597 355.391 68.1765 355.391 69.8189C355.391 71.518 355.745 72.8489 356.453 73.8117C357.19 74.7745 358.181 75.2559 359.427 75.2559ZM380.68 80.9053H373.459V58.7326H380.68V67.1854L387.052 58.7326H394.995L387.094 69.1393L395.207 80.9053H386.967L380.68 71.4755V80.9053ZM398.81 61.3661C400.934 59.2423 403.667 58.1804 407.008 58.1804C410.35 58.1804 413.082 59.2423 415.206 61.3661C417.33 63.49 418.392 66.3076 418.392 69.8189C418.392 73.3303 417.33 76.1479 415.206 78.2717C413.082 80.3956 410.35 81.4575 407.008 81.4575C403.667 81.4575 400.934 80.3956 398.81 78.2717C396.686 76.1479 395.624 73.3303 395.624 69.8189C395.624 66.3076 396.686 63.49 398.81 61.3661ZM403.95 73.7692C404.686 74.7604 405.706 75.2559 407.008 75.2559C408.311 75.2559 409.33 74.7604 410.066 73.7692C410.803 72.7498 411.171 71.433 411.171 69.8189C411.171 68.2048 410.803 66.9022 410.066 65.9111C409.33 64.8917 408.311 64.382 407.008 64.382C405.706 64.382 404.686 64.8917 403.95 65.9111C403.214 66.9022 402.845 68.2048 402.845 69.8189C402.845 71.433 403.214 72.7498 403.95 73.7692ZM443.523 58.7326V80.9053H436.472V69.3092L428.954 80.9053H422.158V58.7326H429.209V70.3287L436.727 58.7326H443.523ZM430.058 49.0055C430.058 49.9117 430.299 50.6762 430.78 51.2992C431.262 51.8939 431.956 52.1912 432.862 52.1912C433.768 52.1912 434.462 51.8939 434.943 51.2992C435.424 50.6762 435.665 49.9117 435.665 49.0055H440.847C440.847 51.3559 440.139 53.2248 438.723 54.6124C437.308 55.9999 435.354 56.6937 432.862 56.6937C430.37 56.6937 428.416 55.9999 427 54.6124C425.584 53.2248 424.876 51.3559 424.876 49.0055H430.058ZM459.621 61.3661C461.745 59.2423 464.478 58.1804 467.819 58.1804C471.161 58.1804 473.893 59.2423 476.017 61.3661C478.141 63.49 479.203 66.3076 479.203 69.8189C479.203 73.3303 478.141 76.1479 476.017 78.2717C473.893 80.3956 471.161 81.4575 467.819 81.4575C464.478 81.4575 461.745 80.3956 459.621 78.2717C457.497 76.1479 456.435 73.3303 456.435 69.8189C456.435 66.3076 457.497 63.49 459.621 61.3661ZM464.761 73.7692C465.497 74.7604 466.516 75.2559 467.819 75.2559C469.122 75.2559 470.141 74.7604 470.877 73.7692C471.614 72.7498 471.982 71.433 471.982 69.8189C471.982 68.2048 471.614 66.9022 470.877 65.9111C470.141 64.8917 469.122 64.382 467.819 64.382C466.516 64.382 465.497 64.8917 464.761 65.9111C464.025 66.9022 463.656 68.2048 463.656 69.8189C463.656 71.433 464.025 72.7498 464.761 73.7692ZM495.839 59.2848C498.699 59.2848 500.979 60.2901 502.678 62.3006C504.405 64.3112 505.269 66.9305 505.269 70.1587C505.269 73.3303 504.249 76.0063 502.21 78.1868C500.2 80.3672 497.538 81.4575 494.225 81.4575C490.374 81.4575 487.414 80.2115 485.347 77.7195C483.28 75.2276 482.246 71.7445 482.246 67.2704C482.246 64.8634 482.431 62.7537 482.799 60.9414C483.167 59.129 483.79 57.4725 484.668 55.9716C485.545 54.4708 486.749 53.2673 488.278 52.3611C489.836 51.4267 491.747 50.7895 494.012 50.4497L503.145 49.048V55.2495L494.565 56.3964C492.639 56.6513 491.223 57.2601 490.317 58.2229C489.439 59.1574 488.901 60.5874 488.703 62.513C490.345 60.3609 492.724 59.2848 495.839 59.2848ZM493.843 75.4683C495.202 75.4683 496.235 74.9727 496.943 73.9816C497.68 72.9622 498.048 71.6879 498.048 70.1587C498.048 68.6579 497.68 67.4403 496.943 66.5058C496.235 65.543 495.216 65.0616 493.885 65.0616C492.497 65.0616 491.436 65.543 490.699 66.5058C489.963 67.4686 489.595 68.6862 489.595 70.1587C489.595 71.6879 489.949 72.9622 490.657 73.9816C491.393 74.9727 492.455 75.4683 493.843 75.4683ZM507.026 80.9902V74.8311H507.833C508.824 74.8311 509.546 74.5763 509.999 74.0666C510.481 73.5285 510.764 72.6649 510.849 71.4755L511.826 58.7326H530.091V80.9053H522.87V64.8917H518.112L517.603 71.9852C517.376 75.1285 516.555 77.4222 515.139 78.8664C513.752 80.2823 511.684 80.9902 508.938 80.9902H507.026ZM547.515 66.2084C547.515 65.3872 547.232 64.7642 546.666 64.3395C546.099 63.8864 545.349 63.6599 544.414 63.6599C542.687 63.6599 541.682 64.2545 541.398 65.4439H534.73C535.013 63.3484 536.018 61.621 537.746 60.2617C539.501 58.8742 541.837 58.1804 544.754 58.1804C547.784 58.1804 550.177 58.8883 551.933 60.3042C553.688 61.6918 554.566 63.7448 554.566 66.4633V80.9053H547.94V78.6115C546.552 80.5088 544.428 81.4575 541.568 81.4575C539.36 81.4575 537.519 80.8203 536.046 79.546C534.574 78.2717 533.838 76.5302 533.838 74.3214C533.838 71.9994 534.645 70.2012 536.259 68.9269C537.901 67.6526 540.181 67.0155 543.098 67.0155H547.515V66.2084ZM543.777 75.978C544.825 75.978 545.703 75.6807 546.411 75.086C547.147 74.463 547.515 73.6135 547.515 72.5374V71.8153H543.65C542.885 71.8153 542.262 72.0135 541.781 72.41C541.299 72.7781 541.059 73.2737 541.059 73.8967C541.059 74.548 541.299 75.0577 541.781 75.4258C542.262 75.7939 542.928 75.978 543.777 75.978ZM569.444 75.2559C571.341 75.2559 572.517 74.3639 572.97 72.5799H579.808C579.61 75.2134 578.577 77.3514 576.708 78.9938C574.839 80.6363 572.403 81.4575 569.402 81.4575C566.004 81.4575 563.285 80.3672 561.246 78.1868C559.207 76.0063 558.188 73.217 558.188 69.8189C558.188 66.4491 559.207 63.674 561.246 61.4936C563.285 59.2848 566.004 58.1804 569.402 58.1804C572.403 58.1804 574.81 59.0158 576.623 60.6865C578.463 62.3572 579.497 64.4669 579.723 67.0155H572.842C572.361 65.2598 571.214 64.382 569.402 64.382C568.184 64.382 567.207 64.8775 566.471 65.8686C565.763 66.8597 565.409 68.1765 565.409 69.8189C565.409 71.518 565.763 72.8489 566.471 73.8117C567.207 74.7745 568.198 75.2559 569.444 75.2559ZM581.95 64.8917V58.7326H601.828V64.8917H595.499V80.9053H588.279V64.8917H581.95ZM626.661 58.7326V80.9053H619.61V69.3092L612.092 80.9053H605.296V58.7326H612.347V70.3287L619.865 58.7326H626.661Z" fill="#05598F"/>
<defs>
<linearGradient id="paint0_linear_2129_8355" x1="69.0488" y1="44.9066" x2="-0.00022636" y2="44.9066" gradientUnits="userSpaceOnUse">
<stop stop-color="#D2D2D2"/>
<stop offset="0.2279" stop-color="white"/>
<stop offset="0.414" stop-color="#C6C6C6"/>
<stop offset="0.586" stop-color="white"/>
<stop offset="0.7721" stop-color="white"/>
<stop offset="1" stop-color="white"/>
</linearGradient>
</defs>
</svg>
