<svg xmlns="http://www.w3.org/2000/svg" width="321" height="156" viewBox="0 0 321 156" fill="none">
<mask id="mask0_2159_8705" style="mask-type:alpha" maskUnits="userSpaceOnUse" x="0" y="1" width="81" height="86">
<rect y="1" width="80.2707" height="85.8066" fill="url(#paint0_linear_2159_8705)"/>
</mask>
<g mask="url(#mask0_2159_8705)">
<path fill-rule="evenodd" clip-rule="evenodd" d="M38.7767 -65.8279C38.6543 -65.4408 38.1583 -62.5908 37.6739 -59.4947C37.1896 -56.3986 36.4642 -52.0561 36.0618 -49.8446C35.66 -47.6331 35.189 -44.9187 35.0155 -43.8132C34.8186 -42.5566 34.4104 -41.8028 33.9266 -41.8028C33.5008 -41.8028 32.6328 -41.2796 31.9978 -40.64C31.3629 -40.0004 29.746 -38.9083 28.4053 -38.2135C24.5462 -36.2138 21.0745 -32.0428 20.3523 -28.5381C20.0208 -26.9303 19.8648 -25.1713 20.0053 -24.6293C20.1474 -24.0825 19.9324 -23.5169 19.5215 -23.3582C18.5534 -22.984 18.5779 -21.7326 19.5694 -20.9033C21.0075 -19.7013 21.9756 -17.0105 21.9756 -14.2173C21.9756 -12.7001 22.2087 -11.2236 22.4934 -10.9368C22.7787 -10.6495 23.0778 -6.56048 23.1587 -1.8496L23.1609 -1.7204L23.3061 6.71597L55.3474 6.98349L57.2106 6.99905L57.2104 6.98349L57.0957 -1.7204C56.944 -13.1408 57.5954 -18.8725 59.2443 -20.6406C60.2741 -21.7444 60.3805 -22.1615 59.8904 -23.1705C59.5678 -23.8353 59.1453 -25.5777 58.951 -27.0429C58.3677 -31.452 56.5204 -34.4199 52.8039 -36.9198C51.0028 -38.1309 49.2061 -39.1222 48.8106 -39.1222C48.4152 -39.1222 47.8372 -39.602 47.5253 -40.188C47.214 -40.7745 46.3794 -41.4007 45.6705 -41.5798C44.6215 -41.8452 44.2793 -42.4188 43.8291 -44.6689C43.0148 -48.7348 40.756 -61.0173 40.3393 -63.647C39.9699 -65.9764 39.1743 -67.0867 38.7767 -65.8279ZM32.8861 -13.4442L46.1916 -13.4062V-21.9664H32.8861V-13.4442ZM38.0816 -9.67104C36.9783 -7.7244 36.6712 -7.54211 33.8989 -7.19363L30.9073 -6.81675L33.0921 -4.87546C35.1768 -3.02317 35.255 -2.84249 34.8026 -0.923729C34.2598 1.37944 34.2507 1.37516 37.592 0.228401C39.8842 -0.55809 40.269 -0.55809 42.2212 0.228401C43.3921 0.700722 44.4922 1.08672 44.6662 1.08672C44.8397 1.08672 44.8435 0.0616684 44.6742 -1.19178C44.3831 -3.34966 44.4778 -3.55929 46.4625 -5.15263L48.5578 -6.83497L45.6253 -7.20436C42.9695 -7.53836 42.5629 -7.77158 41.3117 -9.67694C40.5516 -10.8334 39.7821 -11.7785 39.6011 -11.7758C39.4207 -11.7737 38.7368 -10.8264 38.0816 -9.67104ZM-2.57462 -10.3058C-2.96527 -7.99084 -2.80507 -7.37538 -1.70178 -6.95238C-0.870583 -6.63435 -0.439554 -5.95938 -0.205221 -1.7204C0.00997758 2.17245 0.0592916 9.07104 0.100312 21.4593C0.191321 48.9107 0.598467 64.5863 1.30206 67.7462C2.02109 70.9752 4.41874 73.5164 7.95587 74.7988C9.64194 75.4105 13.2004 75.8785 18.2501 76.1541C22.6563 76.3943 27.1445 76.9444 28.7114 77.437C31.4683 78.3034 32.2959 78.9612 37.0779 84.0849C40.7267 87.9948 41.5421 87.8587 46.0372 82.5897C50.4328 77.437 51.9294 76.8227 61.7361 76.1461C72.479 75.4052 76.5238 73.8954 78.8262 69.7689C80.0439 67.5859 80.0482 67.5092 80.0019 47.0654C79.9763 35.7833 79.8491 19.1255 79.7187 10.0485L79.5499 -1.7204L79.4819 -6.4554L80.7991 -6.95989C81.7997 -7.34321 82.1164 -7.85413 82.1164 -9.08614C82.1164 -10.4988 81.9274 -10.7074 80.6528 -10.7047C76.9166 -10.6972 74.1922 -9.1687 71.6902 -5.67695L70.5827 -4.13079L69.4038 -6.0517C67.912 -8.483 65.3621 -10.0806 62.2971 -10.5036C59.9244 -10.8312 59.8999 -10.8183 59.6519 -9.1167C59.4444 -7.68954 59.6125 -7.31855 60.6472 -6.92236C61.7232 -6.51021 61.8698 -6.32146 61.8892 -1.7204C61.8916 -1.13248 61.8921 -0.472519 61.8921 0.269142V6.98403H73.0686L73.0782 12.7473C73.083 15.9168 73.1432 29.0453 73.2113 41.9208C73.3321 64.8281 73.3113 65.3636 72.2357 66.8503C70.3054 69.5197 67.9476 70.2836 60.718 70.5806C57.1191 70.7291 52.9476 71.0867 51.4472 71.3762C48.0102 72.0394 44.2926 74.3908 42.3 77.162L40.7592 79.3038L38.9678 76.895C37.7437 75.2497 36.1348 73.97 33.8915 72.8575C30.8131 71.3306 30.0792 71.203 22.1667 70.8213C9.92136 70.2305 8.44604 69.3475 7.56575 62.0885C7.3055 59.9408 7.02821 46.6633 6.94997 32.5837L6.80734 6.98349L17.7178 6.98403V0.269142C17.7178 -0.472542 17.7182 -1.1325 17.7206 -1.7204C17.7397 -6.32932 17.8854 -6.50995 18.9696 -6.92504C19.8999 -7.28102 20.2076 -7.79409 20.1671 -8.92208C20.116 -10.3562 19.9894 -10.4345 17.8706 -10.3401C14.7156 -10.2002 11.9949 -8.74088 10.4206 -6.34389L9.07246 -4.29216L6.60935 -6.91271C4.9781 -8.64813 3.42721 -9.73055 2.01736 -10.1176C-0.459052 -10.7974 -2.47723 -10.88 -2.57462 -10.3058ZM39.3387 9.50862C39.1311 9.7177 37.9943 9.8185 36.8123 9.73271C34.4716 9.56223 32.62 10.724 32.62 12.3629C32.62 13.8882 34.1352 14.7106 36.6585 14.554C39.4776 14.3793 39.5559 14.7299 37.9007 20.1281C36.5962 24.3822 36.8378 25.9155 38.9518 26.7974C40.9093 27.6144 42.5741 26.8376 43.0621 24.8792C43.3703 23.6429 42.7093 18.2189 41.8817 15.1931C41.5724 14.063 41.6698 14.0313 44.5417 14.3299C47.2837 14.6152 47.5221 14.5524 47.5221 13.5504C47.5221 12.7795 46.8973 12.2096 45.3826 11.5995C44.2059 11.125 42.9179 10.7369 42.5203 10.7369C42.1233 10.7369 41.5001 10.375 41.1355 9.93269C40.4064 9.04755 39.9124 8.93122 39.3387 9.50862ZM10.2668 10.8907C10.2668 11.2907 11.8235 13.5043 13.7262 15.8096C15.6289 18.1149 17.2133 20.3897 17.2468 20.8642C17.2809 21.3392 17.3405 21.9761 17.3799 22.2806C17.4193 22.5846 19.3677 24.55 21.7095 26.6478C24.0512 28.7451 27.2765 31.8139 28.8764 33.4662L31.7855 36.4706H26.8236C22.2912 36.4706 21.8984 36.5515 22.2859 37.4088C22.8287 38.6086 22.8325 41.2951 22.2928 42.4837C21.9144 43.3184 22.42 43.4182 27.7369 43.5559L33.5982 43.7082L25.0795 52.8222C16.8306 61.6473 15.6363 63.1666 14.797 65.9025C14.4234 67.1216 14.4942 67.1693 16.1691 66.8321C18.5747 66.3474 21.867 63.4926 31.5124 53.5272C36.0257 48.864 39.9604 45.0485 40.2557 45.0485C40.5511 45.0485 44.283 48.5177 48.5482 52.7584C60.4322 64.5723 64.088 67.5296 65.9284 66.8181C67.7874 66.0997 64.7745 62.0419 54.3074 51.1688L46.867 43.4401H66.6048L67.7076 42.0275C69.1244 40.2138 69.0962 39.5452 67.5261 37.7069L66.2419 36.2025L48.3205 36.5231L55.3724 29.4951C59.2655 25.6152 62.4243 22.0313 62.4243 21.4941C62.4243 20.959 63.981 18.4731 65.8837 15.9694C71.0276 9.20088 70.2404 8.46211 64.0209 14.2216C60.9176 17.0958 59.4082 18.1192 57.3889 18.7186C56.4272 19.0038 53.3478 22.198 42.6986 33.9562L40.2701 36.6378L33.3981 29.5429C29.6188 25.641 25.9433 21.6228 25.2306 20.6133C24.4297 19.4794 23.4887 18.7787 22.7675 18.7787C21.52 18.7787 20.1384 17.864 15.2318 13.7906C11.2971 10.524 10.2668 9.92197 10.2668 10.8907ZM13.3041 37.5514C10.5962 39.697 11.9379 43.4401 15.4155 43.4401C19.4736 43.4401 20.0585 37.6967 16.0983 36.7376C15.1573 36.5097 14.3052 36.7579 13.3041 37.5514ZM18.2501 36.6732C18.2501 36.7848 18.5992 37.7176 19.026 38.7464C19.6982 40.3671 19.7004 40.751 19.0431 41.6264C17.968 43.0557 18.0691 43.4401 19.5194 43.4401C20.8042 43.4401 22.5078 41.5053 22.5078 40.0465C22.5078 38.8215 20.3827 36.4706 19.2756 36.4706C18.7115 36.4706 18.2501 36.5617 18.2501 36.6732ZM14.5495 39.3892C13.8204 40.2738 14.2212 41.2957 15.2973 41.2957C16.3144 41.2957 16.7167 39.8712 15.8939 39.1839C15.3825 38.7561 15.0264 38.8102 14.5495 39.3892ZM37.5372 55.0943C35.2981 55.2519 34.57 55.5473 33.9064 56.5675C33.2411 57.5899 33.2006 58.0767 33.7015 59.0198C34.2544 60.0609 34.6264 60.1601 36.9326 59.885C39.3584 59.5955 39.5388 59.6561 39.5388 60.7568C39.5388 61.4076 39.0721 63.5837 38.5015 65.5936C37.3988 69.4784 37.6308 71.4138 39.2754 72.0496C40.9742 72.7063 42.1829 72.3793 43.0637 71.0245C43.8349 69.8392 43.8759 69.1497 43.3719 65.7974C43.0525 63.6738 42.6204 61.3556 42.4118 60.6463C42.0349 59.3661 42.0546 59.3591 44.9872 59.706C47.3247 59.9826 48.0048 59.8915 48.2422 59.2685C48.5717 58.4032 46.7355 56.8431 45.3874 56.8431C44.9291 56.8431 43.6146 56.3606 42.466 55.7709C41.3175 55.1811 40.3691 54.7431 40.3579 54.7978C40.3462 54.8525 39.0769 54.9855 37.5372 55.0943Z" fill="#05598F"/>
<path d="M23.3061 6.71597L23.1609 -1.7204H17.7206C17.7182 -1.1325 17.7178 -0.472542 17.7178 0.269142V6.98403L55.3474 6.98349L23.3061 6.71597Z" fill="#05598F"/>
<path d="M57.0957 -1.7204L57.2104 6.98349L61.8921 6.98403V0.269142C61.8921 -0.472519 61.8916 -1.13248 61.8892 -1.7204H57.0957Z" fill="#05598F"/>
</g>
<path d="M110.165 85.8097L102.974 85.8097L102.974 62.5985L110.165 62.5985L110.165 69.9884L128.863 69.9884L128.863 78.4198L110.165 78.4198L110.165 85.8097ZM106.049 56.6539C103.569 54.1741 102.329 50.9834 102.329 47.0818C102.329 43.1802 103.569 39.9895 106.049 37.5096C108.529 35.0298 111.819 33.7899 115.919 33.7899C120.019 33.7899 123.308 35.0298 125.788 37.5096C128.268 39.9894 129.508 43.1802 129.508 47.0818C129.508 50.9833 128.268 54.1741 125.788 56.6539C123.308 59.1337 120.019 60.3736 115.919 60.3736C111.819 60.3736 108.529 59.1337 106.049 56.6539ZM120.531 50.6527C121.688 49.793 122.267 48.6027 122.267 47.0818C122.267 45.5608 121.688 44.3705 120.531 43.5108C119.341 42.6511 117.803 42.2213 115.919 42.2213C114.034 42.2213 112.513 42.6511 111.356 43.5108C110.165 44.3705 109.57 45.5608 109.57 47.0818C109.57 48.6027 110.165 49.793 111.356 50.6527C112.513 51.5124 114.034 51.9422 115.919 51.9422C117.803 51.9422 119.341 51.5124 120.531 50.6527ZM102.974 29.3928L102.974 4.89215L128.863 4.89214L128.863 13.3236L110.165 13.3236L110.165 20.9614L128.863 20.9614L128.863 29.3928L102.974 29.3928Z" fill="#05598F"/>
<path d="M172.912 1.44351V78H153.882V22.1051L137.461 32.6533V13.7317L155.404 1.44351H172.912Z" fill="#05598F"/>
<path d="M191.866 10.9043C197.738 3.65466 205.459 0.0298267 215.029 0.0298267C224.598 0.0298267 232.283 3.65466 238.083 10.9043C243.955 18.154 246.891 27.7598 246.891 39.7218C246.891 51.6837 243.955 61.2895 238.083 68.5392C232.283 75.7889 224.598 79.4137 215.029 79.4137C205.459 79.4137 197.738 75.7889 191.866 68.5392C186.066 61.2895 183.166 51.6837 183.166 39.7218C183.166 27.7598 186.066 18.154 191.866 10.9043ZM205.677 56.3597C207.779 60.5645 210.896 62.667 215.029 62.667C219.161 62.667 222.278 60.5645 224.381 56.3597C226.483 52.1549 227.534 46.6089 227.534 39.7218C227.534 32.8346 226.483 27.2886 224.381 23.0838C222.278 18.879 219.161 16.7766 215.029 16.7766C210.896 16.7766 207.779 18.879 205.677 23.0838C203.574 27.2886 202.523 32.8346 202.523 39.7218C202.523 46.6089 203.574 52.1549 205.677 56.3597Z" fill="#05598F"/>
<path d="M259.919 10.9043C265.791 3.65466 273.512 0.0298267 283.081 0.0298267C292.651 0.0298267 300.336 3.65466 306.135 10.9043C312.008 18.154 314.944 27.7598 314.944 39.7218C314.944 51.6837 312.008 61.2895 306.135 68.5392C300.336 75.7889 292.651 79.4137 283.081 79.4137C273.512 79.4137 265.791 75.7889 259.919 68.5392C254.119 61.2895 251.219 51.6837 251.219 39.7218C251.219 27.7598 254.119 18.154 259.919 10.9043ZM273.729 56.3597C275.832 60.5645 278.949 62.667 283.081 62.667C287.214 62.667 290.331 60.5645 292.433 56.3597C294.536 52.1549 295.587 46.6089 295.587 39.7218C295.587 32.8346 294.536 27.2886 292.433 23.0838C290.331 18.879 287.214 16.7766 283.081 16.7766C278.949 16.7766 275.832 18.879 273.729 23.0838C271.627 27.2886 270.576 32.8346 270.576 39.7218C270.576 46.6089 271.627 52.1549 273.729 56.3597Z" fill="#05598F"/>
<path d="M1.83145 122.593V106.11H10.0098C11.9255 106.11 13.3885 106.499 14.399 107.278C15.4095 108.057 15.9147 109.088 15.9147 110.373C15.9147 111.278 15.6831 112.036 15.22 112.646C14.7569 113.236 14.1464 113.667 13.3885 113.941C14.2937 114.172 15.0305 114.625 15.5989 115.299C16.1883 115.972 16.4831 116.835 16.4831 117.888C16.4831 119.277 15.9357 120.414 14.8411 121.298C13.7464 122.161 12.1781 122.593 10.1361 122.593H1.83145ZM9.44145 115.962H7.07319V118.961H9.44145C9.96773 118.961 10.3782 118.835 10.6729 118.583C10.9887 118.309 11.1466 117.93 11.1466 117.446C11.1466 116.456 10.5782 115.962 9.44145 115.962ZM9.15726 109.741H7.07319V112.457H9.12568C9.60986 112.457 9.98878 112.341 10.2624 112.109C10.5361 111.857 10.6729 111.52 10.6729 111.099C10.6729 110.194 10.1677 109.741 9.15726 109.741ZM17.9272 122.656V118.077H18.5272C19.264 118.077 19.8008 117.888 20.1376 117.509C20.4954 117.109 20.706 116.467 20.7691 115.583L21.4954 106.11H35.0734V122.593H29.7053V110.688H26.1687L25.7898 115.962C25.6214 118.298 25.0109 120.003 23.9584 121.077C22.9269 122.13 21.3901 122.656 19.3482 122.656H17.9272ZM54.626 106.11V122.593H49.3843V113.972L43.7952 122.593H38.7429V106.11H43.9847V114.73L49.5738 106.11H54.626ZM72.4082 122.593H67.1349V117.762H65.5876L62.7141 122.593H56.8724L60.4406 116.656C58.7144 115.583 57.8513 114.004 57.8513 111.92C57.8513 110.215 58.4092 108.825 59.5249 107.752C60.6616 106.657 62.2826 106.11 64.3877 106.11H72.4082V122.593ZM63.1562 111.983C63.1562 112.53 63.3246 112.972 63.6614 113.309C64.0193 113.625 64.514 113.783 65.1455 113.783H67.1349V110.183H65.1455C64.5351 110.183 64.0509 110.352 63.693 110.688C63.3351 111.025 63.1562 111.457 63.1562 111.983ZM75.0125 110.688V106.11H89.7905V110.688H85.0855V122.593H79.7175V110.688H75.0125ZM107.374 115.867H96.575V115.93C96.575 116.751 96.8697 117.446 97.4592 118.014C98.0696 118.583 98.838 118.867 99.7643 118.867C100.375 118.867 100.88 118.751 101.28 118.519C101.701 118.267 101.964 117.993 102.069 117.698H107.216C106.964 119.109 106.195 120.351 104.911 121.424C103.648 122.477 101.901 123.003 99.6695 123.003C97.0802 123.003 95.0172 122.245 93.4805 120.73C91.9648 119.214 91.207 117.119 91.207 114.446C91.207 111.772 91.9543 109.646 93.4489 108.067C94.9435 106.489 96.9224 105.699 99.3853 105.699C101.827 105.699 103.764 106.468 105.195 108.004C106.648 109.541 107.374 111.604 107.374 114.193V115.867ZM99.4801 109.773C98.7012 109.773 98.0591 109.994 97.5539 110.436C97.0697 110.857 96.7645 111.467 96.6382 112.267H102.164C102.101 111.509 101.827 110.909 101.343 110.467C100.859 110.004 100.238 109.773 99.4801 109.773ZM108.772 122.656V118.077H109.372C110.109 118.077 110.646 117.888 110.982 117.509C111.34 117.109 111.551 116.467 111.614 115.583L112.34 106.11H125.918V122.593H120.55V110.688H117.014L116.635 115.962C116.466 118.298 115.856 120.003 114.803 121.077C113.772 122.13 112.235 122.656 110.193 122.656H108.772ZM134.861 106.11V110.53H137.387C139.387 110.53 140.976 111.099 142.155 112.236C143.334 113.351 143.924 114.783 143.924 116.53C143.924 118.298 143.324 119.751 142.124 120.888C140.945 122.024 139.366 122.593 137.387 122.593H129.588V106.11H134.861ZM136.724 114.762H134.861V118.361H136.724C137.292 118.361 137.756 118.193 138.113 117.856C138.471 117.498 138.65 117.056 138.65 116.53C138.65 116.004 138.471 115.583 138.113 115.267C137.777 114.93 137.314 114.762 136.724 114.762ZM152.07 122.593H146.702V106.11H152.07V111.888H157.028V106.11H162.396V122.593H157.028V116.467H152.07V122.593ZM171.341 106.11V110.53H173.867C175.867 110.53 177.456 111.099 178.635 112.236C179.814 113.351 180.403 114.783 180.403 116.53C180.403 118.298 179.803 119.751 178.604 120.888C177.425 122.024 175.846 122.593 173.867 122.593H166.068V106.11H171.341ZM187.161 106.11V122.593H181.888V106.11H187.161ZM173.204 114.762H171.341V118.361H173.204C173.772 118.361 174.235 118.193 174.593 117.856C174.951 117.498 175.13 117.056 175.13 116.53C175.13 116.004 174.951 115.583 174.593 115.267C174.256 114.93 173.793 114.762 173.204 114.762ZM200.618 122.593L197.745 118.014L194.903 122.593H189.124L194.65 114.32L189.187 106.11H195.219L198.06 110.783L200.934 106.11H206.618L201.155 114.446L206.681 122.593H200.618ZM214.079 122.656V118.077H214.679C215.416 118.077 215.953 117.888 216.29 117.509C216.647 117.109 216.858 116.467 216.921 115.583L217.647 106.11H231.225V122.593H225.857V110.688H222.321L221.942 115.962C221.773 118.298 221.163 120.003 220.11 121.077C219.079 122.13 217.542 122.656 215.5 122.656H214.079ZM240.263 122.593H234.895V106.11H240.263V111.888H242.379C242.842 109.973 243.8 108.467 245.252 107.373C246.705 106.257 248.452 105.699 250.494 105.699C252.978 105.699 254.988 106.489 256.525 108.067C258.083 109.646 258.862 111.741 258.862 114.351C258.862 116.962 258.083 119.056 256.525 120.635C254.988 122.214 252.978 123.003 250.494 123.003C248.368 123.003 246.568 122.424 245.094 121.267C243.642 120.088 242.715 118.488 242.316 116.467H240.263V122.593ZM248.284 117.288C248.81 118.025 249.547 118.393 250.494 118.393C251.441 118.393 252.178 118.025 252.704 117.288C253.231 116.53 253.494 115.551 253.494 114.351C253.494 113.151 253.231 112.183 252.704 111.446C252.178 110.688 251.441 110.309 250.494 110.309C249.547 110.309 248.81 110.688 248.284 111.446C247.757 112.183 247.494 113.151 247.494 114.351C247.494 115.551 247.757 116.53 248.284 117.288ZM279.82 118.014V126.635H274.673V122.593H265.358V126.635H260.211V118.014H261.442C262.284 117.509 262.8 116.141 262.99 113.909L263.558 106.11H277.515V118.014H279.82ZM267.979 114.193C267.831 116.025 267.463 117.298 266.874 118.014H272.147V110.688H268.231L267.979 114.193ZM297.698 115.867H286.899V115.93C286.899 116.751 287.194 117.446 287.783 118.014C288.394 118.583 289.162 118.867 290.088 118.867C290.699 118.867 291.204 118.751 291.604 118.519C292.025 118.267 292.288 117.993 292.393 117.698H297.54C297.288 119.109 296.519 120.351 295.235 121.424C293.972 122.477 292.225 123.003 289.993 123.003C287.404 123.003 285.341 122.245 283.804 120.73C282.289 119.214 281.531 117.119 281.531 114.446C281.531 111.772 282.278 109.646 283.773 108.067C285.267 106.489 287.246 105.699 289.709 105.699C292.151 105.699 294.088 106.468 295.519 108.004C296.972 109.541 297.698 111.604 297.698 114.193V115.867ZM289.804 109.773C289.025 109.773 288.383 109.994 287.878 110.436C287.394 110.857 287.088 111.467 286.962 112.267H292.488C292.425 111.509 292.151 110.909 291.667 110.467C291.183 110.004 290.562 109.773 289.804 109.773ZM316.399 106.11V122.593H311.157V113.972L305.568 122.593H300.515V106.11H305.757V114.73L311.346 106.11H316.399ZM306.389 98.8786C306.389 99.5523 306.568 100.121 306.925 100.584C307.283 101.026 307.799 101.247 308.473 101.247C309.146 101.247 309.662 101.026 310.02 100.584C310.378 100.121 310.557 99.5523 310.557 98.8786H314.409C314.409 100.626 313.883 102.015 312.83 103.047C311.778 104.078 310.325 104.594 308.473 104.594C306.62 104.594 305.168 104.078 304.115 103.047C303.063 102.015 302.536 100.626 302.536 98.8786H306.389ZM0.757842 137.688V133.11H15.5358V137.688H10.8308V149.593H5.46278V137.688H0.757842ZM28.3441 133.11H34.0595L25.5022 155.624H19.8184L22.3129 149.056L16.2818 133.11H22.0287L25.1548 142.741L28.3441 133.11ZM33.8389 149.656V145.077H34.4389C35.1757 145.077 35.7125 144.888 36.0493 144.509C36.4072 144.109 36.6177 143.467 36.6808 142.583L37.4071 133.11H50.9851V149.593H45.6171V137.688H42.0805L41.7015 142.962C41.5331 145.298 40.9226 147.003 39.8701 148.077C38.8386 149.13 37.3018 149.656 35.2599 149.656H33.8389ZM59.928 133.11V137.53H62.4541C64.454 137.53 66.0433 138.099 67.2222 139.236C68.4011 140.351 68.9905 141.783 68.9905 143.53C68.9905 145.298 68.3905 146.751 67.1906 147.888C66.0118 149.024 64.4329 149.593 62.4541 149.593H54.6547V133.11H59.928ZM61.791 141.762H59.928V145.361H61.791C62.3594 145.361 62.8225 145.193 63.1804 144.856C63.5383 144.498 63.7172 144.056 63.7172 143.53C63.7172 143.004 63.5383 142.583 63.1804 142.267C62.8436 141.93 62.3804 141.762 61.791 141.762ZM79.2843 145.393C80.6947 145.393 81.5683 144.73 81.9051 143.404H86.989C86.8416 145.361 86.0733 146.951 84.6839 148.172C83.2945 149.393 81.4841 150.003 79.2527 150.003C76.7266 150.003 74.7057 149.193 73.19 147.572C71.6743 145.951 70.9164 143.877 70.9164 141.351C70.9164 138.846 71.6743 136.783 73.19 135.162C74.7057 133.52 76.7266 132.699 79.2527 132.699C81.4841 132.699 83.2735 133.32 84.6207 134.562C85.9891 135.804 86.7574 137.373 86.9259 139.267H81.8104C81.4525 137.962 80.6 137.309 79.2527 137.309C78.3475 137.309 77.6212 137.678 77.0739 138.415C76.5476 139.151 76.2845 140.13 76.2845 141.351C76.2845 142.614 76.5476 143.604 77.0739 144.319C77.6212 145.035 78.358 145.393 79.2843 145.393ZM95.084 149.593H89.716V133.11H95.084V139.393L99.8205 133.11H105.725L99.8521 140.846L105.883 149.593H99.7574L95.084 142.583V149.593ZM108.562 135.067C110.141 133.489 112.172 132.699 114.656 132.699C117.14 132.699 119.172 133.489 120.75 135.067C122.329 136.646 123.119 138.741 123.119 141.351C123.119 143.962 122.329 146.056 120.75 147.635C119.172 149.214 117.14 150.003 114.656 150.003C112.172 150.003 110.141 149.214 108.562 147.635C106.983 146.056 106.194 143.962 106.194 141.351C106.194 138.741 106.983 136.646 108.562 135.067ZM112.383 144.288C112.93 145.025 113.688 145.393 114.656 145.393C115.625 145.393 116.382 145.025 116.93 144.288C117.477 143.53 117.751 142.551 117.751 141.351C117.751 140.151 117.477 139.183 116.93 138.446C116.382 137.688 115.625 137.309 114.656 137.309C113.688 137.309 112.93 137.688 112.383 138.446C111.835 139.183 111.562 140.151 111.562 141.351C111.562 142.551 111.835 143.53 112.383 144.288ZM137.949 137.688H131.286V149.593H125.918V133.11H137.949V137.688ZM141.835 135.067C143.413 133.489 145.445 132.699 147.929 132.699C150.413 132.699 152.444 133.489 154.023 135.067C155.602 136.646 156.391 138.741 156.391 141.351C156.391 143.962 155.602 146.056 154.023 147.635C152.444 149.214 150.413 150.003 147.929 150.003C145.445 150.003 143.413 149.214 141.835 147.635C140.256 146.056 139.466 143.962 139.466 141.351C139.466 138.741 140.256 136.646 141.835 135.067ZM145.655 144.288C146.203 145.025 146.961 145.393 147.929 145.393C148.897 145.393 149.655 145.025 150.202 144.288C150.75 143.53 151.023 142.551 151.023 141.351C151.023 140.151 150.75 139.183 150.202 138.446C149.655 137.688 148.897 137.309 147.929 137.309C146.961 137.309 146.203 137.688 145.655 138.446C145.108 139.183 144.834 140.151 144.834 141.351C144.834 142.551 145.108 143.53 145.655 144.288ZM175.701 132.699C177.743 132.699 179.427 133.478 180.753 135.036C182.079 136.594 182.742 138.699 182.742 141.351C182.742 143.962 182.069 146.056 180.721 147.635C179.395 149.214 177.679 150.003 175.574 150.003C173.638 150.003 172.227 149.382 171.343 148.14V155.624H165.975V133.11H171.122V134.878C172.09 133.425 173.617 132.699 175.701 132.699ZM172.069 144.319C172.638 145.035 173.385 145.393 174.311 145.393C175.238 145.393 175.974 145.035 176.522 144.319C177.09 143.583 177.374 142.593 177.374 141.351C177.374 140.13 177.09 139.151 176.522 138.415C175.974 137.678 175.238 137.309 174.311 137.309C173.385 137.309 172.638 137.678 172.069 138.415C171.522 139.13 171.248 140.088 171.248 141.288V141.414C171.248 142.614 171.522 143.583 172.069 144.319ZM200.871 142.867H190.072V142.93C190.072 143.751 190.367 144.446 190.956 145.014C191.566 145.583 192.335 145.867 193.261 145.867C193.872 145.867 194.377 145.751 194.777 145.519C195.198 145.267 195.461 144.993 195.566 144.698H200.713C200.461 146.109 199.692 147.351 198.408 148.424C197.145 149.477 195.398 150.003 193.166 150.003C190.577 150.003 188.514 149.245 186.977 147.73C185.462 146.214 184.704 144.119 184.704 141.446C184.704 138.772 185.451 136.646 186.946 135.067C188.44 133.489 190.419 132.699 192.882 132.699C195.324 132.699 197.261 133.468 198.692 135.004C200.145 136.541 200.871 138.604 200.871 141.193V142.867ZM192.977 136.773C192.198 136.773 191.556 136.994 191.051 137.436C190.566 137.857 190.261 138.467 190.135 139.267H195.661C195.598 138.509 195.324 137.909 194.84 137.467C194.356 137.004 193.735 136.773 192.977 136.773ZM215.719 137.688H209.056V149.593H203.688V133.11H215.719V137.688ZM234.28 133.11V149.593H229.039V140.972L223.45 149.593H218.397V133.11H223.639V141.73L229.228 133.11H234.28ZM239.463 135.067C241.042 133.489 243.074 132.699 245.558 132.699C248.042 132.699 250.073 133.489 251.652 135.067C253.231 136.646 254.02 138.741 254.02 141.351C254.02 143.962 253.231 146.056 251.652 147.635C250.073 149.214 248.042 150.003 245.558 150.003C243.074 150.003 241.042 149.214 239.463 147.635C237.885 146.056 237.095 143.962 237.095 141.351C237.095 138.741 237.885 136.646 239.463 135.067ZM243.284 144.288C243.832 145.025 244.589 145.393 245.558 145.393C246.526 145.393 247.284 145.025 247.831 144.288C248.379 143.53 248.652 142.551 248.652 141.351C248.652 140.151 248.379 139.183 247.831 138.446C247.284 137.688 246.526 137.309 245.558 137.309C244.589 137.309 243.832 137.688 243.284 138.446C242.737 139.183 242.463 140.151 242.463 141.351C242.463 142.551 242.737 143.53 243.284 144.288ZM262.188 149.593H256.82V133.11H262.188V138.888H267.145V133.11H272.513V149.593H267.145V143.467H262.188V149.593ZM285.469 138.667C285.469 138.057 285.258 137.594 284.837 137.278C284.416 136.941 283.858 136.773 283.164 136.773C281.88 136.773 281.132 137.215 280.922 138.099H275.964C276.175 136.541 276.922 135.257 278.206 134.246C279.511 133.215 281.248 132.699 283.416 132.699C285.669 132.699 287.448 133.225 288.753 134.278C290.058 135.31 290.711 136.836 290.711 138.857V149.593H285.785V147.888C284.753 149.298 283.174 150.003 281.048 150.003C279.406 150.003 278.038 149.53 276.943 148.582C275.848 147.635 275.301 146.34 275.301 144.698C275.301 142.972 275.901 141.635 277.101 140.688C278.322 139.741 280.017 139.267 282.185 139.267H285.469V138.667ZM282.69 145.93C283.469 145.93 284.122 145.709 284.648 145.267C285.195 144.804 285.469 144.172 285.469 143.372V142.835H282.595C282.027 142.835 281.564 142.983 281.206 143.277C280.848 143.551 280.669 143.919 280.669 144.383C280.669 144.867 280.848 145.246 281.206 145.519C281.564 145.793 282.059 145.93 282.69 145.93Z" fill="#05598F"/>
<defs>
<linearGradient id="paint0_linear_2159_8705" x1="80.2706" y1="43.9046" x2="-0.000263148" y2="43.9046" gradientUnits="userSpaceOnUse">
<stop stop-color="#D2D2D2"/>
<stop offset="0.2279" stop-color="white"/>
<stop offset="0.414" stop-color="#C6C6C6"/>
<stop offset="0.586" stop-color="white"/>
<stop offset="0.7721" stop-color="white"/>
<stop offset="1" stop-color="white"/>
</linearGradient>
</defs>
</svg>