<svg width="19" height="21" viewBox="0 0 19 21" fill="none" xmlns="http://www.w3.org/2000/svg">
<path d="M14.7217 0.564624C11.302 -0.0884357 7.75079 -0.0884357 4.33109 0.564624C2.81853 0.891153 0.911393 2.71972 0.582575 4.15645C-0.00929596 6.96461 -0.00929596 9.83807 0.582575 12.6462C0.977156 14.083 2.88429 15.9115 4.33109 16.238C4.39685 16.238 4.46262 16.3034 4.46262 16.3687V20.4829C4.46262 20.6789 4.72567 20.8095 4.8572 20.6135L6.83011 18.5891C6.83011 18.5891 8.40843 16.9564 8.67148 16.6952C8.67148 16.6952 8.73725 16.6299 8.80301 16.6299C10.7759 16.6952 12.8146 16.4993 14.7875 16.1727C16.3 15.8462 18.2072 14.0176 18.536 12.5809C19.1279 9.77276 19.1279 6.8993 18.536 4.09114C18.1414 2.71972 16.2343 0.891153 14.7217 0.564624ZM14.7875 12.8421C14.4587 13.4952 14.0641 14.0176 13.4065 14.3442C13.2092 14.4095 13.0119 14.4748 12.8146 14.5401C12.5515 14.4748 12.3542 14.4095 12.1569 14.3442C10.0525 13.4952 8.07961 12.3197 6.50129 10.6217C5.64636 9.64215 4.92296 8.53195 4.33109 7.35644C4.06804 6.76869 3.80498 6.24624 3.60769 5.65849C3.4104 5.13604 3.73922 4.61359 4.06804 4.22176C4.39685 3.82992 4.79144 3.5687 5.25178 3.37278C5.5806 3.17686 5.90942 3.30747 6.17247 3.5687C6.69858 4.22176 7.22468 4.87481 7.61927 5.59318C7.88232 6.05032 7.81655 6.57277 7.35621 6.8993C7.22468 6.9646 7.15892 7.02991 7.02739 7.16052C6.96163 7.22583 6.8301 7.29113 6.76434 7.42175C6.63281 7.61766 6.63281 7.81358 6.69858 8.0095C7.22468 9.51154 8.21113 10.687 9.72369 11.3401C9.98675 11.4707 10.184 11.536 10.5129 11.536C10.9732 11.4707 11.1705 10.9483 11.4993 10.687C11.8281 10.4258 12.2227 10.4258 12.6173 10.6217C12.9461 10.8177 13.2749 11.0789 13.6695 11.3401C13.9983 11.6013 14.3271 11.7972 14.656 12.0585C14.8532 12.1891 14.919 12.5156 14.7875 12.8421ZM12.0254 7.9442C11.8939 7.9442 11.9597 7.9442 12.0254 7.9442C11.7624 7.9442 11.6966 7.81358 11.6308 7.61767C11.6308 7.48705 11.6308 7.29114 11.5651 7.16052C11.4993 6.8993 11.3678 6.63808 11.1047 6.44216C10.9732 6.37685 10.8417 6.31155 10.7101 6.24624C10.5129 6.18093 10.3813 6.18093 10.184 6.18093C9.98675 6.11563 9.92099 5.98502 9.92099 5.7891C9.92099 5.65849 10.1183 5.52787 10.2498 5.52787C11.302 5.59318 12.0912 6.18093 12.2227 7.42175C12.2227 7.48705 12.2227 7.61766 12.2227 7.68297C12.2227 7.81358 12.1569 7.9442 12.0254 7.9442ZM11.3678 5.07073C11.039 4.94012 10.7101 4.80951 10.3156 4.7442C10.184 4.7442 9.98675 4.6789 9.85522 4.6789C9.65793 4.6789 9.52641 4.54829 9.59217 4.35237C9.59217 4.15645 9.7237 4.02584 9.92099 4.09114C10.5786 4.15645 11.1705 4.28706 11.7624 4.54829C12.9461 5.13604 13.6037 6.11563 13.801 7.42175C13.801 7.48705 13.801 7.55236 13.801 7.61767C13.801 7.74828 13.801 7.87889 13.801 8.07481C13.801 8.14011 13.801 8.20542 13.801 8.27073C13.7353 8.53195 13.2749 8.59725 13.2092 8.27073C13.2092 8.20542 13.1434 8.07481 13.1434 8.0095C13.1434 7.42175 13.0119 6.83399 12.7488 6.31155C12.3542 5.72379 11.8939 5.33196 11.3678 5.07073ZM14.919 8.98909C14.7217 8.98909 14.5902 8.79317 14.5902 8.59725C14.5902 8.20542 14.5244 7.81358 14.4587 7.42175C14.1956 5.33196 12.4858 3.634 10.4471 3.30747C10.1183 3.24217 9.78946 3.24217 9.52641 3.17686C9.32912 3.17686 9.06606 3.17686 9.0003 2.91564C8.93453 2.71972 9.13182 2.5238 9.32911 2.5238C9.39488 2.5238 9.46064 2.5238 9.46064 2.5238C12.1569 2.58911 9.59217 2.5238 9.46064 2.5238C12.2227 2.58911 14.5244 4.41767 14.9848 7.16052C15.0505 7.61766 15.1163 8.07481 15.1163 8.59725C15.2478 8.79317 15.1163 8.98909 14.919 8.98909Z" fill="#7C509A"/>
</svg>
