<svg width="21" height="14" viewBox="0 0 21 14" fill="none" xmlns="http://www.w3.org/2000/svg">
<path d="M11.2162 13.2257C4.47193 13.2257 0.625127 8.51047 0.464844 0.664246H3.84312C3.95409 6.42317 6.44464 8.86254 8.41736 9.36551V0.664246H11.5984V5.631C13.5464 5.41725 15.5931 3.15391 16.2836 0.664246H19.4646C19.2044 1.95546 18.6858 3.17803 17.9411 4.25549C17.1965 5.33295 16.2418 6.24212 15.1369 6.92613C16.3703 7.55114 17.4596 8.43578 18.3331 9.52167C19.2066 10.6076 19.8444 11.87 20.2043 13.2257H16.7028C16.3797 12.0482 15.7229 10.9941 14.8149 10.1956C13.9069 9.39704 12.788 8.88958 11.5984 8.7368V13.2257H11.2162Z" fill="#0077FF"/>
</svg>
