<svg width="36" height="36" viewBox="0 0 36 36" fill="none" xmlns="http://www.w3.org/2000/svg">
<rect width="35.8881" height="35.8881" fill="#0077FF"/>
<path d="M18.8249 24.2244C12.0811 24.2244 8.23449 19.5094 8.07422 11.6636H11.4523C11.5633 17.4222 14.0537 19.8614 16.0263 20.3644V11.6636H19.2071V16.6301C21.1551 16.4163 23.2017 14.1531 23.8921 11.6636H27.0729C26.8128 12.9547 26.2942 14.1772 25.5496 15.2546C24.805 16.332 23.8504 17.2411 22.7455 17.9251C23.9788 18.5501 25.0681 19.4347 25.9415 20.5205C26.815 21.6064 27.4527 22.8687 27.8127 24.2244H24.3113C23.9882 23.0469 23.3315 21.9929 22.4235 21.1944C21.5155 20.3959 20.3967 19.8885 19.2071 19.7357V24.2244H18.8249Z" fill="white"/>
</svg>
