<svg width="20" height="13" viewBox="0 0 20 13" fill="none" xmlns="http://www.w3.org/2000/svg">
<path d="M11.0523 12.2015C4.71962 12.2015 1.10753 7.7739 0.957031 0.406433H4.12918C4.23337 5.81397 6.57196 8.1045 8.42431 8.57677V0.406433H11.4112V5.07014C13.2404 4.86942 15.1622 2.74419 15.8106 0.406433H18.7975C18.5532 1.61886 18.0662 2.76683 17.367 3.77855C16.6678 4.79027 15.7714 5.64397 14.7339 6.28624C15.892 6.87311 16.9149 7.70377 17.7351 8.72341C18.5553 9.74304 19.1541 10.9285 19.4921 12.2015H16.2042C15.9008 11.0958 15.2841 10.106 14.4315 9.35619C13.5789 8.60638 12.5282 8.12989 11.4112 7.98643V12.2015H11.0523Z" fill="white"/>
</svg>
