<svg width="19" height="14" viewBox="0 0 19 14" fill="none" xmlns="http://www.w3.org/2000/svg">
<path d="M9.06196 1.41663C11.8491 1.41663 13.9849 2.62821 15.4147 3.91051C16.1305 4.55135 16.6704 5.21018 17.0374 5.75176C17.2201 6.02286 17.3599 6.26419 17.4575 6.46519C17.5546 6.66681 17.623 6.78778 17.623 6.99994C17.623 7.21087 17.5546 7.33308 17.4575 7.53346C17.3593 7.7357 17.2201 7.97702 17.0369 8.24812C16.6704 8.78971 16.1293 9.44854 15.4147 10.0894C13.9855 11.3717 11.8496 12.5833 9.06196 12.5833C6.27486 12.5833 4.13901 11.3717 2.70921 10.0894C1.99346 9.44854 1.4535 8.78971 1.08649 8.24812C0.903846 7.97702 0.764006 7.7357 0.666403 7.5347C0.569371 7.33308 0.500876 7.21211 0.500876 6.99994C0.500876 6.78902 0.569371 6.66681 0.666403 6.46643C0.764576 6.26419 0.903845 6.02286 1.08706 5.75176C1.4535 5.21018 1.9946 4.55135 2.70921 3.91051C4.13844 2.62821 6.27429 1.41663 9.06196 1.41663Z" stroke="#05598F" stroke-width="0.921196"/>
<path d="M12.3904 7.0386C12.3904 5.24235 10.9292 3.78115 9.13298 3.78115C7.33673 3.78115 5.87552 5.24235 5.87552 7.0386C5.87552 8.83486 7.33673 10.2961 9.13298 10.2961C10.9292 10.2961 12.3904 8.83486 12.3904 7.0386Z" stroke="#05598F" stroke-width="0.921196"/>
</svg>
