<svg width="37" height="36" viewBox="0 0 37 36" fill="none" xmlns="http://www.w3.org/2000/svg">
<rect x="0.113281" width="35.8881" height="35.8881" fill="#FF9800"/>
<path fill-rule="evenodd" clip-rule="evenodd" d="M9.08594 10.6815V12.3909L9.46144 12.4047C11.0037 12.4615 12.3241 12.6939 13.6821 13.1477C15.3066 13.6906 16.9153 14.5773 18.2382 15.659C21.2118 18.0905 23.0916 21.5307 23.5138 25.3139C23.5544 25.6782 23.5812 26.067 23.5977 26.5306L23.6114 26.9161H25.3207H27.03L27.0299 26.5706C27.0295 25.1717 26.772 23.4515 26.3375 21.9445C25.8921 20.4 25.1859 18.8103 24.3537 17.4788C23.2428 15.7015 21.9058 14.1933 20.301 12.9073C17.5505 10.7033 14.249 9.36499 10.7674 9.04298C10.2604 8.99608 9.81085 8.97225 9.4314 8.97215L9.08594 8.97205V10.6815ZM9.08594 16.6566V18.3783L9.42139 18.3913C9.81902 18.4066 10.1899 18.4467 10.5879 18.5173C12.6055 18.8755 14.4571 19.9786 15.7438 21.5889C16.8958 23.0306 17.5413 24.7566 17.6108 26.5806L17.6236 26.9161H19.3454H21.0671L21.0533 26.5706C21.0003 25.244 20.7831 24.08 20.3736 22.9289C18.8852 18.7442 15.1946 15.7065 10.8283 15.0722C10.4172 15.0124 9.91441 14.968 9.4314 14.9487L9.08594 14.9349V16.6566ZM11.1947 21.8199C10.6761 21.9148 10.215 22.1584 9.83508 22.5384C9.33333 23.0401 9.08606 23.639 9.08606 24.3526C9.08606 25.0663 9.33333 25.6652 9.83508 26.1669C10.336 26.6678 10.937 26.916 11.6494 26.916C12.3618 26.916 12.9628 26.6678 13.4637 26.1669C13.8478 25.7828 14.0908 25.32 14.1819 24.7988C14.2219 24.5702 14.2217 24.1342 14.1814 23.902C13.9998 22.8545 13.1475 22.0023 12.1 21.8206C11.8809 21.7826 11.4007 21.7822 11.1947 21.8199Z" fill="white"/>
</svg>
